<svg xmlns="http://www.w3.org/2000/svg" width="300" height="92" viewBox="0 0 300 92">
  <metadata><?xpacket begin="﻿" id="W5M0MpCehiHzreSzNTczkc9d"?>
<x:xmpmeta xmlns:x="adobe:ns:meta/" x:xmptk="Adobe XMP Core 5.6-c138 79.159824, 2016/09/14-01:09:01        ">
   <rdf:RDF xmlns:rdf="http://www.w3.org/1999/02/22-rdf-syntax-ns#">
      <rdf:Description rdf:about=""/>
   </rdf:RDF>
</x:xmpmeta>
                                                                                                    
                                                                                                    
                                                                                                    
                                                                                                    
                                                                                                    
                                                                                                    
                                                                                                    
                                                                                                    
                                                                                                    
                                                                                                    
                                                                                                    
                                                                                                    
                                                                                                    
                                                                                                    
                                                                                                    
                                                                                                    
                                                                                                    
                                                                                                    
                                                                                                    
                                                                                                    
                           
<?xpacket end="w"?></metadata>
<defs>
    <style>
      .cls-1 {
        fill: #32ffb1;
        fill-rule: evenodd;
      }
    </style>
  </defs>
  <g id="Rityta_1" data-name="Rityta 1">
    <path id="Southside" class="cls-1" d="M34.218,131.79a5.511,5.511,0,0,1-.316-1.354,6.433,6.433,0,0,0-1.373-1.281,18.354,18.354,0,0,0-1.633-1q-0.854-.463-1.707-0.909a8.517,8.517,0,0,1-1.559-1.039,16.255,16.255,0,0,1-3.377-1.169q-1.6-.761-3.266-1.391a0.227,0.227,0,0,1-.26.148,0.945,0.945,0,0,1-.334-0.056,2.1,2.1,0,0,0-.334-0.092,2.672,2.672,0,0,0-.928-0.65,11.632,11.632,0,0,0-1.15-.427l-1.187-.371a3.405,3.405,0,0,1-1.039-.519,3.221,3.221,0,0,1-.779-0.167,1.962,1.962,0,0,0-.816-0.093q-1.225-.743-2.468-1.522T9.3,118.227a18.912,18.912,0,0,1-2.152-1.949A12.225,12.225,0,0,1,5.4,113.922a6.524,6.524,0,0,0-.167-1.058,4.47,4.47,0,0,1-.13-1.057,2.048,2.048,0,0,1,.019-0.26,2.43,2.43,0,0,0,.019-0.3,1.429,1.429,0,0,0,.445-0.538,5.956,5.956,0,0,0,.26-0.65q0.111-.333.2-0.686a1.836,1.836,0,0,1,.278-0.612,1.276,1.276,0,0,1,.538-0.427,1.392,1.392,0,0,0,.538-0.39,1.267,1.267,0,0,0,.315-0.593,0.643,0.643,0,0,1,.5-0.446,4.515,4.515,0,0,0,1.15-.594,7.554,7.554,0,0,0,.965-0.89,5.985,5.985,0,0,0,1.262-.631l1.15-.779q0.593-.408,1.225-0.761a4.654,4.654,0,0,1,1.41-.5,1.122,1.122,0,0,1,.594-0.408,1.125,1.125,0,0,0,.594-0.408,5.37,5.37,0,0,0,1.169-.205q0.575-.166,1.169-0.334t1.169-.3a5.264,5.264,0,0,1,1.169-.13h0.334a0.924,0.924,0,0,1,.334.074,1.216,1.216,0,0,0,.631.612,2.2,2.2,0,0,0,.928.2,2.506,2.506,0,0,0,.891-0.167,1.691,1.691,0,0,0,.742-0.538,9.74,9.74,0,0,0,1.6.019q0.816-.055,1.559-0.056a8.932,8.932,0,0,1,1.132.074,2.663,2.663,0,0,1,1.058.371,0.509,0.509,0,0,1,.594-0.556l0.186,0.037V100.6a3.5,3.5,0,0,0-.037-0.483,0.614,0.614,0,0,0-.223-0.408,4.293,4.293,0,0,0,.816-0.445,1.37,1.37,0,0,0,.52-0.779A0.747,0.747,0,0,1,32.158,98V97.854a4.933,4.933,0,0,1-.687-0.334,0.843,0.843,0,0,1-.39-0.631q-1.077-.185-2.171-0.408a11.047,11.047,0,0,0-2.208-.223,1.887,1.887,0,0,0-.52.074,1.87,1.87,0,0,1-.519.074,0.2,0.2,0,0,1-.223-0.148,0.227,0.227,0,0,0-.26-0.148H25.107a0.482,0.482,0,0,1-.371.223,3.183,3.183,0,0,1-.445.037,4.725,4.725,0,0,1-.594-0.037,1.621,1.621,0,0,0-.594.037,5.633,5.633,0,0,0-1.392.39,3.5,3.5,0,0,1-1.392.278h-0.26q-0.594.26-1.187,0.464a3.739,3.739,0,0,1-1.225.2h-0.26a0.565,0.565,0,0,1-.3.334,2.088,2.088,0,0,1-.464.167q-0.242.056-.482,0.13a0.709,0.709,0,0,0-.39.3,0.735,0.735,0,0,0-.612.093,0.887,0.887,0,0,1-.575.167H14.346a1.205,1.205,0,0,1-.557.557q-1.67.817-3.266,1.577a13.322,13.322,0,0,0-3.006,1.986,0.951,0.951,0,0,0-.482.185,4.111,4.111,0,0,0-.353.316,4.187,4.187,0,0,1-.353.315,0.812,0.812,0,0,1-.52.149,1.068,1.068,0,0,1-.2.519,1.07,1.07,0,0,0-.2.52,6.286,6.286,0,0,0-3.1,2.876,8.914,8.914,0,0,0-.983,4.137,10.966,10.966,0,0,0,.52,3.266,2.142,2.142,0,0,1,.408.464,1.139,1.139,0,0,1,.186.649,1.163,1.163,0,0,1-.074.334,12.045,12.045,0,0,1,1.373,1.373,5.873,5.873,0,0,1,1,1.707,8.246,8.246,0,0,1,1.039.5,1.165,1.165,0,0,1,.557.947,2.024,2.024,0,0,1,.408-0.075,1.026,1.026,0,0,1,.8.353,5.572,5.572,0,0,0,.687.649,4.693,4.693,0,0,1,1.076.408q0.482,0.261.946,0.539a7.687,7.687,0,0,0,1,.5,3.657,3.657,0,0,0,1.206.259,0.44,0.44,0,0,0,.26.39,0.5,0.5,0,0,1,.3.315h0.148a0.29,0.29,0,0,0,.26-0.111,0.36,0.36,0,0,1,.223-0.148,0.927,0.927,0,0,0,.427.389,6.393,6.393,0,0,0,.594.241,3.69,3.69,0,0,1,.575.26,1.09,1.09,0,0,1,.408.408,4,4,0,0,1,1.15.167q0.557,0.168,1.076.372t1.058,0.408a3.824,3.824,0,0,0,1.132.241,3.89,3.89,0,0,0,1.8,1.02q1.058,0.279,2.06.464a0.984,0.984,0,0,0,.482.576q0.334,0.167.705,0.315t0.705,0.315a1.007,1.007,0,0,1,.482.5,4.125,4.125,0,0,1,2.06.928,13.117,13.117,0,0,1,1.54,1.633,0.825,0.825,0,0,0,.019.167,0.878,0.878,0,0,1,.018.167,0.984,0.984,0,0,1-.241.724,1.188,1.188,0,0,0-.315.649q-1.745,1-3.3,1.744a10.545,10.545,0,0,1-3.6.928,3.487,3.487,0,0,1-.983.482,11.99,11.99,0,0,1-1.187.316,10.682,10.682,0,0,1-1.206.185q-0.594.055-1.076,0.056c-0.322,0-.637-0.013-0.946-0.037a2.585,2.585,0,0,1-.872-0.223c0-.173-0.013-0.4-0.037-0.686A3.863,3.863,0,0,0,16,136.225a2.122,2.122,0,0,0-.371-0.7,0.754,0.754,0,0,0-.612-0.3,1.761,1.761,0,0,0-.687.148,1.764,1.764,0,0,1-.687.149H13.529a4,4,0,0,0-.779,1.094,2.974,2.974,0,0,0-.3,1.318,3.691,3.691,0,0,0,.445,1.762,4.359,4.359,0,0,0,1.15,1.392q1.113,0.111,2.227.26a16.993,16.993,0,0,0,2.226.148,9.083,9.083,0,0,0,1.188-.074q0.557-.075,1.188-0.223h0.26a2.59,2.59,0,0,1,.891.149,0.663,0.663,0,0,1,.334-0.223,2.79,2.79,0,0,1,.445-0.111q0.223-.038.445-0.093a0.789,0.789,0,0,0,.371-0.2h0.26a5.594,5.594,0,0,0,2.357-.52q1.131-.519,2.208-1a4.834,4.834,0,0,1,.668-0.241,3.521,3.521,0,0,0,.631-0.241,3.8,3.8,0,0,0,.946-0.687,5.181,5.181,0,0,1,1.095-.8,1.728,1.728,0,0,1,.371-0.91q0.3-.353.612-0.668a8.47,8.47,0,0,0,.612-0.686,1.851,1.851,0,0,0,.371-0.928,0.387,0.387,0,0,0,.371-0.093,0.756,0.756,0,0,1,.3-0.2,3.1,3.1,0,0,0,.037-0.556A3.971,3.971,0,0,0,34.218,131.79ZM59.6,111.974a6.289,6.289,0,0,0-.612-0.854c-0.223-.26-0.44-0.525-0.649-0.8a3.966,3.966,0,0,1-.538-0.965,4.04,4.04,0,0,1-1.6-1.187c-0.1.025-.192,0.043-0.278,0.056a2.353,2.353,0,0,1-.316.018,3.6,3.6,0,0,1-1.3-.241,3.6,3.6,0,0,0-1.3-.241,2.064,2.064,0,0,0-.408.037,3.547,3.547,0,0,0-.408.111q-0.632.149-1.169,0.278a4.5,4.5,0,0,0-1.132.464,15.214,15.214,0,0,0-2.041,1.188,7.175,7.175,0,0,1-2.152,1,1.652,1.652,0,0,1-.408.519,1.232,1.232,0,0,0-.371.557,10.054,10.054,0,0,0-2.5,1.855,13.837,13.837,0,0,1-2.431,1.967,0.678,0.678,0,0,1-.037.39,0.364,0.364,0,0,1-.371.167,0.213,0.213,0,0,1-.148-0.037,0.584,0.584,0,0,1-.019.445,0.687,0.687,0,0,0-.093.371,23.623,23.623,0,0,0-2.5,3.025,14.329,14.329,0,0,0-1.763,3.506A2.635,2.635,0,0,1,34.9,124.7a4.978,4.978,0,0,0-.26,1.021q0.52,1.745,1,3.135a11.2,11.2,0,0,0,1.559,2.876q0.519,0.261,1.188.538a2.357,2.357,0,0,1,1.039.8q0.668,0.113,1.317.2a9.278,9.278,0,0,0,1.317.093,5.891,5.891,0,0,0,1.039-.093,3.326,3.326,0,0,0,1-.352,0.662,0.662,0,0,0,.482.148h0.445a6.9,6.9,0,0,1,1.373-.445,14.021,14.021,0,0,1,1.41-.223,7.143,7.143,0,0,1,2-1.3q1.113-.483,2.264-0.854a11.306,11.306,0,0,1,1.243-1.076,5.928,5.928,0,0,1,1.429-.779q0.816-1.115,1.67-2.171a9.14,9.14,0,0,0,1.373-2.357,3.524,3.524,0,0,1,.037-0.909,3.655,3.655,0,0,1,.223-0.742q0.148-.353.316-0.724t0.352-.816V120.6a7.713,7.713,0,0,1,.52-2.747,2.35,2.35,0,0,1,.223-0.519,2.369,2.369,0,0,0,.223-0.52V116.26c0-.272-0.006-0.551-0.019-0.835s-0.019-.575-0.019-0.872q0-.334.037-0.742a1.574,1.574,0,0,1,.26-0.743A2.724,2.724,0,0,0,59.6,111.974Zm-3.655,3.915A3.8,3.8,0,0,1,56,116.3c0.012,0.148.019,0.285,0.019,0.408a6.44,6.44,0,0,1-.2,1.633,12.9,12.9,0,0,1-.5,1.521q-0.3.744-.594,1.5a11.1,11.1,0,0,0-.482,1.577,9.2,9.2,0,0,0-.779.891,11.352,11.352,0,0,0-.668.965,3.389,3.389,0,0,0-.278.408,1.988,1.988,0,0,1-.315.408,2.366,2.366,0,0,1-.483.427q-0.3.2-.519,0.39a18.541,18.541,0,0,1-3.136,1.837,14.585,14.585,0,0,1-3.433,1.094,5.031,5.031,0,0,0-1.614-.185,3.743,3.743,0,0,1-1.577-.26,1.808,1.808,0,0,1-1.058-.853,5.3,5.3,0,0,0-.8-1.114,1.86,1.86,0,0,1-.037-0.371v-0.371a6.232,6.232,0,0,1,.352-2.245,9.4,9.4,0,0,1,.854-1.689q0.5-.779,1.076-1.54a9.829,9.829,0,0,0,1.058-1.8,9.536,9.536,0,0,0,.983-0.891q0.464-.481.946-0.946T45.8,116.2a5.483,5.483,0,0,1,1.095-.724,2.107,2.107,0,0,1,.705-0.575,1.432,1.432,0,0,0,.631-0.612h0.668a2.743,2.743,0,0,1,.724-0.631,5.993,5.993,0,0,1,.891-0.445q0.463-.186.909-0.39a2.65,2.65,0,0,0,.779-0.538,0.855,0.855,0,0,1,.464.464c0.086,0.21.167,0.415,0.241,0.612a0.776,0.776,0,0,0,.353.2,2.813,2.813,0,0,1,.779.353,0.5,0.5,0,0,1,.2.371,1.311,1.311,0,0,1,.52-0.111,1.51,1.51,0,0,1,.742.185,3.511,3.511,0,0,0,.705.3,1.406,1.406,0,0,1,.037.334,1.484,1.484,0,0,1-.3.891h0Zm29.112,12.079q-0.242-.315-0.538-0.65a1.625,1.625,0,0,1-.278.112,1.154,1.154,0,0,1-.315.037,1.488,1.488,0,0,1-1.262-.668,8.338,8.338,0,0,0-.371-1.614,4.955,4.955,0,0,1-.26-1.615,2.77,2.77,0,0,1,.26-1.187,7.345,7.345,0,0,1-.241-1.447Q82,120.156,82,119.414q0-.445.019-0.891t0.018-.927a7.477,7.477,0,0,1-.519-2.078q-0.149-1.226-.186-2.153a4.676,4.676,0,0,0-1.169-.3,6.689,6.689,0,0,1-1.206-.259,2.256,2.256,0,0,0-.854.519,5.176,5.176,0,0,0-.612.742,9.876,9.876,0,0,0-.52.854,5.5,5.5,0,0,1-.538.816v0.112a0.442,0.442,0,0,0,.056.334,0.62,0.62,0,0,1,.093.334,4.254,4.254,0,0,1-.353,1.391q-0.353.91-.816,1.911t-0.928,1.93q-0.464.928-.724,1.484a1.674,1.674,0,0,0-.482.446q-0.186.26-.39,0.5a2.859,2.859,0,0,1-.445.426,1.28,1.28,0,0,1-.686.223,0.62,0.62,0,0,1-.186.631l-0.223.223a0.452,0.452,0,0,0-.111.334,1.75,1.75,0,0,0-.705.371l-0.557.519a3.15,3.15,0,0,1-.594.464,1.8,1.8,0,0,1-.816.241,0.416,0.416,0,0,1-.223.464,2.666,2.666,0,0,1-.557.2,3.287,3.287,0,0,1-.649-0.371,1.044,1.044,0,0,0-.649-0.185l-0.148.037a5.092,5.092,0,0,1-.557-1.559,8.886,8.886,0,0,1-.148-1.6,13.876,13.876,0,0,1,.241-2.579q0.241-1.279.464-2.579a0.3,0.3,0,0,0,.223-0.074,0.463,0.463,0,0,0,.111-0.186,1.649,1.649,0,0,1,.093-0.222,0.293,0.293,0,0,1,.2-0.149,8.72,8.72,0,0,1,.352-1.466q0.241-.723.5-1.447t0.445-1.466a6.254,6.254,0,0,0,.186-1.521v-0.111a0.279,0.279,0,0,1-.26-0.371,2.59,2.59,0,0,0-.891-0.149,3.383,3.383,0,0,0-1,.149,5.988,5.988,0,0,0-.928.371,1.951,1.951,0,0,1-.074,1.076,8.539,8.539,0,0,1-.445.965q-0.26.482-.483,1a2.793,2.793,0,0,0-.223,1.113l0.037,0.26a6.431,6.431,0,0,0-1.095,1.874,13.728,13.728,0,0,0-.668,2.3q-0.242,1.207-.408,2.413T61.66,126.02a9.5,9.5,0,0,0,.3,1.168,10.29,10.29,0,0,1,.3,1.132,5.145,5.145,0,0,1,.093.724,4.1,4.1,0,0,0,.093.686,2.437,2.437,0,0,0,.761,1.318,5.14,5.14,0,0,1,.983,1.243,1.406,1.406,0,0,1,.557.037,2.035,2.035,0,0,1,.5.223,4.678,4.678,0,0,0,.482.26,1.27,1.27,0,0,0,.538.111,1.667,1.667,0,0,0,.816-0.2,1.666,1.666,0,0,1,.816-0.2,0.214,0.214,0,0,1,.149.037,6.269,6.269,0,0,0,1.54-.947q0.686-.575,1.355-1.206t1.336-1.224a7.955,7.955,0,0,1,1.484-1.039,1.691,1.691,0,0,1,.167-0.557q0.13-.26.241-0.519a2.009,2.009,0,0,0,1.02-.557,6.188,6.188,0,0,0,.705-0.891q0.315-.481.612-0.983a3.338,3.338,0,0,1,.742-0.872,21.651,21.651,0,0,1,.5,2.375,11.47,11.47,0,0,0,.649,2.431,4.984,4.984,0,0,0,1.28,1.892,3.433,3.433,0,0,0,2.394.761h0.482a8.625,8.625,0,0,1,.928-0.538,7.377,7.377,0,0,0,.909-0.538,4.429,4.429,0,0,0,.761-0.668,2.215,2.215,0,0,0,.482-0.928A3.162,3.162,0,0,1,85.058,127.968ZM118.7,110.693c-0.148,0-.315.007-0.5,0.019a0.521,0.521,0,0,1-.426-0.13,2.589,2.589,0,0,0-.353-1.169,1.14,1.14,0,0,0-.983-0.575l-0.26.408a1.544,1.544,0,0,1-.687.278q-0.463.093-1,.149t-1.02.093a4.009,4.009,0,0,0-.742.111,0.372,0.372,0,0,0-.353.315,0.242,0.242,0,0,1-.278.242,1.291,1.291,0,0,1-.223-0.019,1.637,1.637,0,0,0-.26-0.019,3.462,3.462,0,0,0-1.224.223,3.449,3.449,0,0,1-1.225.223,1.792,1.792,0,0,1-.742-0.149,0.459,0.459,0,0,1-.13.39,0.889,0.889,0,0,1-.39.13q-0.742.111-1.465,0.167t-1.466.13q-1.558.186-3.025,0.445t-2.95.483a4.831,4.831,0,0,0-1.187-.149,10.45,10.45,0,0,0-2.245.241,10.221,10.221,0,0,1-2.208.241c-0.173,0-.34,0-0.5-0.018s-0.328-.031-0.5-0.056a9.439,9.439,0,0,1-1.8.483q-0.91.148-1.837,0.259t-1.818.3a8.993,8.993,0,0,0-1.744.557,0.89,0.89,0,0,1-.353.7,0.727,0.727,0,0,0-.316.631,0.681,0.681,0,0,0,.223.427,0.868,0.868,0,0,1,.223.612,1.2,1.2,0,0,1-.074.3q0.445,0.3.761,0.538a1.474,1.474,0,0,0,.909.241q0.148,0,.612-0.037c0.309-.024.631-0.056,0.965-0.093s0.637-.08.909-0.13a1.654,1.654,0,0,0,.52-0.148,0.273,0.273,0,0,0,.167-0.167c0.012-.062.093-0.093,0.241-0.093a1.9,1.9,0,0,1,.519.074,2,2,0,0,0,.557.075,1.17,1.17,0,0,0,.649-0.242,1.513,1.513,0,0,1,.872-0.241,2.064,2.064,0,0,1,.445.074,0.5,0.5,0,0,0,.167.3c0.086,0.075.167,0.149,0.241,0.223,0.024,0.272.056,0.551,0.093,0.835a1.541,1.541,0,0,0,.316.761q0.036,1.075.093,2.1t0.056,2.06c0,0.347-.013.7-0.037,1.058s-0.062.711-.111,1.057a5.046,5.046,0,0,1,.334,2,7.648,7.648,0,0,0,.186,2,3.466,3.466,0,0,0,.352.872q0.241,0.427.483,0.835t0.464,0.835a2.925,2.925,0,0,1,.3.909,0.374,0.374,0,0,1,.39.111c0.061,0.1.13,0.211,0.2,0.334a1.245,1.245,0,0,0,.334.353,1.349,1.349,0,0,0,.779.167,1.466,1.466,0,0,0,.816-0.241q0.37-.242.742-0.52a7.431,7.431,0,0,1,.8-0.519,1.962,1.962,0,0,1,.983-0.242,2.2,2.2,0,0,1,.538-1.039,4.785,4.785,0,0,0,.687-0.927q-0.037-.408-0.056-0.761c-0.013-.235-0.019-0.488-0.019-0.761,0-.148.006-0.3,0.019-0.445a3.47,3.47,0,0,1,.056-0.408,1.854,1.854,0,0,0-.5-0.3,1.546,1.546,0,0,0-.576-0.112,2.552,2.552,0,0,0-1,.2,5.528,5.528,0,0,1-1,.315,0.662,0.662,0,0,0,.074-0.3,0.793,0.793,0,0,0-.3-0.649,0.792,0.792,0,0,1-.3-0.65,7.049,7.049,0,0,1,.056-0.909A6.712,6.712,0,0,0,98.7,124.5a7.474,7.474,0,0,0-.371-2.375,2.742,2.742,0,0,0,.186-1.113,8.728,8.728,0,0,0-.093-1.262,8.62,8.62,0,0,1-.093-1.262,2.58,2.58,0,0,1,.148-0.89,1.01,1.01,0,0,1-.464-0.5,1.3,1.3,0,0,1-.093-0.65,0.251,0.251,0,0,0,.111-0.018,0.261,0.261,0,0,1,.111-0.019,2.686,2.686,0,0,1,.464.037,2.017,2.017,0,0,1,.39.112,5.262,5.262,0,0,1,1.874-.65,12.6,12.6,0,0,1,1.948-.167c0.272,0,.544.013,0.817,0.037a7.3,7.3,0,0,1,.779.112,4.37,4.37,0,0,1,1.856-.576q1.038-.092,1.929-0.129a2.445,2.445,0,0,1,.52-0.019,1.21,1.21,0,0,0,.482-0.056c0.3-.074.581-0.154,0.854-0.241a6.758,6.758,0,0,1,.816-0.2q0.891-.148,1.781-0.241a17.711,17.711,0,0,0,1.782-.278,0.576,0.576,0,0,1,.334.278,2.66,2.66,0,0,1,.185.427,2.558,2.558,0,0,0,.835-0.464,1.329,1.329,0,0,1,.909-0.279,1.216,1.216,0,0,1,.186.019,1.1,1.1,0,0,0,.185.019,1.719,1.719,0,0,1,.13-0.984,4.144,4.144,0,0,1,.5-0.8l0.631-.779a2.619,2.619,0,0,0,.483-0.891H118.7Zm17.312,5.511a1.456,1.456,0,0,0-1.169-.5,2.617,2.617,0,0,0-.483.037,3.522,3.522,0,0,1-.408-1.132q-0.111-.612-0.167-1.261t-0.13-1.281a10.022,10.022,0,0,0-.222-1.224v-0.149a0.3,0.3,0,0,1,.148-0.3,0.237,0.237,0,0,0,.149-0.222l-0.038-.112a1.79,1.79,0,0,1-.538-0.983q-0.131-.612-0.241-1.243t-0.26-1.225a1.892,1.892,0,0,0-.556-0.965,1.231,1.231,0,0,1-.557.112,1.638,1.638,0,0,1-.835-0.2,1.494,1.494,0,0,0-.761-0.2,1.172,1.172,0,0,0-.63.185q0.036,1.04.037,2.078v2.116q0,1.038.074,2.078a19.658,19.658,0,0,0,.26,2.078,0.885,0.885,0,0,0-.3.7,2.9,2.9,0,0,0,.037.482,2.8,2.8,0,0,1,.037.446,0.524,0.524,0,0,1-.037.222,21.772,21.772,0,0,1-4.453,1.188q-2.338.37-4.565,0.556,0.113-.519.26-1.076a4.165,4.165,0,0,0,.149-1.076,5.358,5.358,0,0,0-.075-0.891,5.125,5.125,0,0,1-.074-0.853,0.636,0.636,0,0,1,.13-0.5,0.32,0.32,0,0,0,.13-0.278,6.548,6.548,0,0,0-.186-1.522,6.844,6.844,0,0,1-.185-1.6q0-.408.018-0.835a6.752,6.752,0,0,0-.018-0.853,2.867,2.867,0,0,0-.2-0.835,2.264,2.264,0,0,0-.5-0.742,8.72,8.72,0,0,1-.91-0.2,3.477,3.477,0,0,0-.946-0.13,1.494,1.494,0,0,0-.779.222,3.825,3.825,0,0,0-.186.891q-0.038.445-.037,0.854v0.556a2.322,2.322,0,0,0,.074.557,0.8,0.8,0,0,1,.149.445,42.357,42.357,0,0,1-.26,4.676q-0.26,2.338-.668,4.639a2.125,2.125,0,0,1-1.447.556l-0.149-.037a0.681,0.681,0,0,1-.259.557,1.828,1.828,0,0,0-.984.185,2,2,0,0,1-.946.223h-0.223a2.433,2.433,0,0,1-.816.649c-0.321.162-.637,0.322-0.946,0.483s-0.606.334-.891,0.519a2.056,2.056,0,0,0-.686.761,2.005,2.005,0,0,1,.111.631c0,0.2-.006.384-0.019,0.557a1.794,1.794,0,0,0,.056.556,1.606,1.606,0,0,0,1.039.446,1.633,1.633,0,0,0,.668-0.149c0.223-.1.439-0.2,0.649-0.315s0.4-.217.576-0.316a0.946,0.946,0,0,1,.445-0.148,0.849,0.849,0,0,1,.26.037,0.689,0.689,0,0,0,.222.037,1.2,1.2,0,0,0,.538-0.167q0.315-.166.668-0.371a7.834,7.834,0,0,1,.724-0.371,1.722,1.722,0,0,1,.7-0.167h0.186a7.636,7.636,0,0,0-.019,1.41q0.056,0.7.056,1.447a6.559,6.559,0,0,1-.037.705,3.259,3.259,0,0,1-.149.668,10.3,10.3,0,0,0,.557,1.893,5.16,5.16,0,0,1,.371,1.93v0.334q0.481,0.556.891,1.113l0.816,1.113a3.273,3.273,0,0,0,.668.149c0.223,0.025.445,0.043,0.668,0.055a3.473,3.473,0,0,1,.631.093,2.1,2.1,0,0,1,.594.26,8.579,8.579,0,0,1,.667-0.668,7.226,7.226,0,0,0,.613-0.612,3.048,3.048,0,0,0,.464-0.706,2.612,2.612,0,0,0,.222-0.946,7.986,7.986,0,0,1-1.837-.872,2.335,2.335,0,0,1-1.094-1.651,13.549,13.549,0,0,1-.075-1.559v-1.633q0-.852.038-1.67a13.159,13.159,0,0,1,.185-1.67,43.943,43.943,0,0,1,4.694-1.985,17.024,17.024,0,0,1,4.992-.946,1.435,1.435,0,0,1,.3.853,3.742,3.742,0,0,1-.056.65,3.739,3.739,0,0,0-.056.649c-0.025.3-.037,0.607-0.037,0.928v1.93q0,0.482.037,1a11.359,11.359,0,0,0,.464,2.671q0.39,1.3.687,2.672a10.97,10.97,0,0,1,.2,1.114,1.5,1.5,0,0,0,.5,1,2.7,2.7,0,0,0-.149.927,4.481,4.481,0,0,0,.112.984,2.092,2.092,0,0,0,.408.872,1.177,1.177,0,0,1,.3-0.074,0.618,0.618,0,0,1,.241.055,0.534,0.534,0,0,0,.315.019h0.112a0.635,0.635,0,0,0,.3-0.241c0.075-.112.143-0.223,0.205-0.334a0.855,0.855,0,0,1,.241-0.279,0.666,0.666,0,0,1,.408-0.111,1.371,1.371,0,0,1,.334.037,2.44,2.44,0,0,1,.519-1.058,4.446,4.446,0,0,0,.631-0.946,1.823,1.823,0,0,0-.259-0.686,6.059,6.059,0,0,1-.372-0.65,1.029,1.029,0,0,0-.037-0.482,1.66,1.66,0,0,1-.074-0.52,0.671,0.671,0,0,1,.111-0.334,1.018,1.018,0,0,1-.593-1.039,2.469,2.469,0,0,1,.037-0.408,2.572,2.572,0,0,0,.037-0.408,11.623,11.623,0,0,0-.334-2.431,10.129,10.129,0,0,1-.3-2.431,7.037,7.037,0,0,1,.037-0.7,3.222,3.222,0,0,1,.149-0.7,2.376,2.376,0,0,1-.223-1.076,5.335,5.335,0,0,1,.111-1.039,0.94,0.94,0,0,1,.427-0.39,4.058,4.058,0,0,1,.612-0.222c0.223-.062.439-0.124,0.65-0.186a1.881,1.881,0,0,0,.575-0.278,3.221,3.221,0,0,1,.223-0.742q0.147-.335.3-0.705A9.545,9.545,0,0,0,136.009,116.2Zm22.432,11.838a4.5,4.5,0,0,0-.927-1.41,6.352,6.352,0,0,0-1.355-1.058,15.03,15.03,0,0,0-1.614-.816c-0.273-.124-0.545-0.241-0.816-0.353a7.159,7.159,0,0,0-.817-0.278,3.9,3.9,0,0,0-.946-0.111,6.4,6.4,0,0,1-.984-0.075q-0.965-.074-1.911-0.222t-1.911-.371a1.253,1.253,0,0,1-.631.148,3.284,3.284,0,0,1-1.336-.278,3.357,3.357,0,0,0-1.373-.279h-0.111q-0.445-.333-0.909-0.668a3.644,3.644,0,0,1-.8-0.779q-0.075-.371-0.111-0.7a2.643,2.643,0,0,0-.149-0.631,7.816,7.816,0,0,1,1.5-1.929,8.292,8.292,0,0,0,1.54-1.967,1.6,1.6,0,0,0,.965-0.39q0.408-.352.816-0.779a6.7,6.7,0,0,1,.891-0.779,2.4,2.4,0,0,1,1.188-.427,0.5,0.5,0,0,1,.408-0.631,0.425,0.425,0,0,0,.352,0,0.913,0.913,0,0,0,.2-0.149l0.186-.185a0.4,0.4,0,0,1,.3-0.111,0.911,0.911,0,0,1,.519.148,0.671,0.671,0,0,0,.483.111h0.074a2.627,2.627,0,0,0,1.02-.964q0.39-.631.724-1.262a2.73,2.73,0,0,1-.13-0.742q-0.02-.408-0.055-0.817a4.786,4.786,0,0,0-.13-0.761,1.343,1.343,0,0,0-.353-0.612c-0.124-.024-0.235-0.043-0.334-0.056a2.466,2.466,0,0,0-.3-0.018,2.652,2.652,0,0,0-1.094.223c-0.334.148-.663,0.309-0.984,0.482s-0.649.334-.983,0.482a2.66,2.66,0,0,1-1.095.223,1.119,1.119,0,0,1-.334.52,3.356,3.356,0,0,1-.482.334q-0.261.149-.52,0.315a1.216,1.216,0,0,0-.408.427,2.071,2.071,0,0,0-1.039.389,4.962,4.962,0,0,0-.742.706q-0.334.389-.668,0.76a2.036,2.036,0,0,1-.891.557,9.247,9.247,0,0,1-1.317,1.763q-0.762.8-1.577,1.54a0.376,0.376,0,0,1-.056.371,0.641,0.641,0,0,0-.13.371,0.406,0.406,0,0,0,.037.185q-0.26.112-.482,0.186a3.509,3.509,0,0,0-.446.185,8.757,8.757,0,0,1-.464,1.336q-0.278.631-.612,1.225,0.111,0.632.223,1.373a7.834,7.834,0,0,0,.352,1.429,4.785,4.785,0,0,0,.65,1.243,2.941,2.941,0,0,0,1.076.891,1.775,1.775,0,0,0,.538.2,3.609,3.609,0,0,1,.575.167q1.075,0.445,1.967.8a6.778,6.778,0,0,0,2.078.426,0.991,0.991,0,0,0,.538.279,0.723,0.723,0,0,1,.5.352,0.2,0.2,0,0,1,.093-0.278,0.711,0.711,0,0,1,.353-0.093,2.243,2.243,0,0,1,.5.056c0.16,0.037.315,0.068,0.463,0.092q0.891,0.15,1.763.223a3.71,3.71,0,0,1,1.651.557,4.161,4.161,0,0,1,2.283.315,9.045,9.045,0,0,1,1.948,1.28,2.776,2.776,0,0,0-.278.947,1.879,1.879,0,0,1-.353.909q-1.893.667-3.729,1.354a12.233,12.233,0,0,1-3.878.761,1.315,1.315,0,0,0-.743-0.222,4.892,4.892,0,0,0-.76.055,4.664,4.664,0,0,1-.724.056h-0.445a1.738,1.738,0,0,0-.186.853,3.859,3.859,0,0,0,.112.91,3.9,3.9,0,0,1,.111.909,0.429,0.429,0,0,1-.019.13,0.419,0.419,0,0,0-.018.129,0.666,0.666,0,0,1,.408-0.111,0.538,0.538,0,0,1,.39.167,4.24,4.24,0,0,1,.315.353c0.1,0.123.2,0.241,0.3,0.352a0.436,0.436,0,0,0,.334.167,17.314,17.314,0,0,0,5.77-.983,24.393,24.393,0,0,0,5.251-2.579q0.3-.519.631-1a2.6,2.6,0,0,1,.854-0.78,1.621,1.621,0,0,1,.241-1.131,1.9,1.9,0,0,0,.315-1.095A4.721,4.721,0,0,0,158.441,128.042Zm9.8,0.093a5.582,5.582,0,0,1-.482-1.41,0.645,0.645,0,0,1-.186-0.075,0.271,0.271,0,0,0-.3.13,0.267,0.267,0,0,1-.3.13l-0.075-.037a8.385,8.385,0,0,1-.593-3.544q0.073-1.911.334-3.915t0.371-3.989a10.035,10.035,0,0,0-.483-3.767,5.889,5.889,0,0,0-.705-0.538,2.162,2.162,0,0,0-.853-0.315,1.154,1.154,0,0,0-.613.018q-0.315.093-.612,0.2a0.622,0.622,0,0,1,0,.3,0.46,0.46,0,0,1-.3.427,0.614,0.614,0,0,0-.371.39,0.547,0.547,0,0,1,.186.593,1.718,1.718,0,0,1-.13.464,2.959,2.959,0,0,0-.167.5l0.037,0.186a5.805,5.805,0,0,1,.334,1.985,13.293,13.293,0,0,1-.149,2.023q-0.148,1.076-.334,2.115t-0.334,2.115c-0.024.2-.055,0.415-0.092,0.649a4.664,4.664,0,0,0-.056.724q0.036,0.3.111,0.631a6.207,6.207,0,0,1,.112.668,27.164,27.164,0,0,1,.222,2.783q0.408,0.631.872,1.336a11.851,11.851,0,0,0,1.021,1.336,0.622,0.622,0,0,1,.3,0,0.7,0.7,0,0,1,.519.241,0.754,0.754,0,0,0,.446.279,0.589,0.589,0,0,1,.389-0.167,3.467,3.467,0,0,1,.52,0q0.278,0.018.594,0.018a1.456,1.456,0,0,0,.575-0.111,6.122,6.122,0,0,1,.482-0.5,2.66,2.66,0,0,0,.445-0.538Q168.572,128.8,168.238,128.135Zm28.983-12.9q-0.224-.537-0.52-1.094c-0.2-.372-0.4-0.736-0.612-1.095a6.872,6.872,0,0,1-.5-1.021q-0.483-.408-0.872-0.76a2.073,2.073,0,0,1-.575-0.947,7.871,7.871,0,0,1-1.411-.853q-0.63-.481-1.261-1l-3.043-.817a11.99,11.99,0,0,0-3.117-.408h-0.631a0.1,0.1,0,0,0-.112-0.111,2.252,2.252,0,0,0-.389.056q-0.279.056-.613,0.129l-0.63.112a3.9,3.9,0,0,1-.446.037q-1.41.186-2.746,0.278a15.4,15.4,0,0,0-2.672.427,1.282,1.282,0,0,0-.482-0.13c-0.173-.012-0.334-0.019-0.483-0.019h-0.63a1.492,1.492,0,0,0-.279.539,0.622,0.622,0,0,1-.352.426,5.253,5.253,0,0,1-.65.186c-0.309.074-.563,0.136-0.76,0.185q-0.891.3-1.763,0.668a9.278,9.278,0,0,1-1.763.557l-0.371.965a2.785,2.785,0,0,0-.185,1,2.391,2.391,0,0,0,.259,1.076,4.589,4.589,0,0,0,.91.2,2.068,2.068,0,0,1,.872.316,7.588,7.588,0,0,1,1.595-.65q0.853-.24,1.707-0.427a9.332,9.332,0,0,1,.353,1.744,17.435,17.435,0,0,1,.093,1.782,27.843,27.843,0,0,1-.279,3.952,27.991,27.991,0,0,0-.278,3.952,18.521,18.521,0,0,0,.111,2.041,2.451,2.451,0,0,0-.111.334,1.371,1.371,0,0,0-.037.334,1.5,1.5,0,0,0,.074.482,1.418,1.418,0,0,1,.074.446,0.181,0.181,0,0,1-.222.185,0.166,0.166,0,0,0-.186.223,0.7,0.7,0,0,1,.52.186,1.433,1.433,0,0,1,.3.445,2.071,2.071,0,0,1,.148.556,2.609,2.609,0,0,0,.111.52q0.408,0.409.817,0.761a1.621,1.621,0,0,1,.519.983,2.334,2.334,0,0,1,1.41.631,6.5,6.5,0,0,1,.965,1.262,1.151,1.151,0,0,1,.427-0.056,0.955,0.955,0,0,1,.315.093c0.1,0.05.192,0.1,0.279,0.148a0.617,0.617,0,0,0,.315.074,10.294,10.294,0,0,1,1.151-.593,3.183,3.183,0,0,1,1.261-.223,3.483,3.483,0,0,1,.984-0.742q0.574-.3,1.094-0.52c0.05-.024.2-0.08,0.446-0.167a2,2,0,0,0,.408-0.167l0.816-.779a10.534,10.534,0,0,1,.872-0.779q0.464-.37.91-0.742,1.594-1.3,2.987-2.487a20.92,20.92,0,0,0,2.5-2.523,16.579,16.579,0,0,0,1.948-2.932,14.307,14.307,0,0,0,1.28-3.748V117.6a0.306,0.306,0,0,0-.074-0.223,0.248,0.248,0,0,1-.074-0.185,0.435,0.435,0,0,1,.26-0.446,0.468,0.468,0,0,0,.259-0.482A2.684,2.684,0,0,0,197.221,115.239Zm-3.544,2.468a1.985,1.985,0,0,0-.2.965v0.148q-0.483.669-.928,1.392T191.6,121.6a13.017,13.017,0,0,1-1.077,1.261,5.513,5.513,0,0,1-1.317,1,0.859,0.859,0,0,1-.408.612,0.864,0.864,0,0,0-.408.613,0.491,0.491,0,0,0-.464.222,0.646,0.646,0,0,1-.427.3,1.9,1.9,0,0,1-.3.371l-0.371.334a1.626,1.626,0,0,0-.315.334,0.7,0.7,0,0,0-.13.409l0.037,0.148c-0.074-.024-0.155-0.049-0.241-0.074a0.789,0.789,0,0,0-.2-0.037,0.32,0.32,0,0,0-.223.111,10.043,10.043,0,0,1-2.561,1.707,20.443,20.443,0,0,1-2.931,1.076,0.131,0.131,0,0,1-.149-0.148,0.353,0.353,0,0,1,.149-0.3,0.3,0.3,0,0,0,.148-0.223v-0.111q-0.52-.224-0.983-0.445a3.188,3.188,0,0,1-.872-0.631,9.023,9.023,0,0,1-.316-1.485,12.217,12.217,0,0,1-.093-1.521,22.872,22.872,0,0,1,.223-3.154q0.224-1.6.3-3.155a2.7,2.7,0,0,0,.371-0.7,2.275,2.275,0,0,0,.149-0.779,1.143,1.143,0,0,0-.372-0.891,1.153,1.153,0,0,0,.372-0.7,4.865,4.865,0,0,0,.074-0.779,4.42,4.42,0,0,0-.093-0.891,4.011,4.011,0,0,1-.093-0.816c0-.173.037-0.266,0.112-0.278a1.788,1.788,0,0,1,.3-0.019,0.32,0.32,0,0,0-.3-0.3,0.29,0.29,0,0,1-.26-0.334v-0.148a8.41,8.41,0,0,1,1.5-.65,5.084,5.084,0,0,1,1.54-.241h0.445a1.1,1.1,0,0,1,.408.074,0.638,0.638,0,0,0,.3-0.167,0.5,0.5,0,0,1,.371-0.092c0.223-.025.439-0.043,0.65-0.056s0.414-.019.612-0.019,0.476,0.013.835,0.037l1.095,0.075q0.556,0.038,1.057.111t0.8,0.111a1.212,1.212,0,0,1,.594.334,0.814,0.814,0,0,0,.594.26,0.629,0.629,0,0,0,.259-0.037,1.617,1.617,0,0,0,.947.983,12.265,12.265,0,0,0,1.354.464,7.3,7.3,0,0,1,.928,1.67q0.371,0.928.779,1.781A3.283,3.283,0,0,1,193.677,117.707Zm28.722-7.4a1.611,1.611,0,0,1-.2-0.687,2.486,2.486,0,0,1-.909-0.018,4.614,4.614,0,0,0-.909-0.093,2.336,2.336,0,0,0-.742.111,16.115,16.115,0,0,0-1.893-.26q-0.965-.073-1.929-0.074-1.114,0-2.209.037t-2.208.037a4.184,4.184,0,0,1-1.669.334,7.2,7.2,0,0,1-.891-0.055q-0.446-.055-0.891-0.13a1.87,1.87,0,0,0-.278.26,0.506,0.506,0,0,1-.39.111,10.555,10.555,0,0,0-1.113.185,6.484,6.484,0,0,0-.909.279,6.563,6.563,0,0,0-.854.408q-0.426.242-.946,0.538a7.853,7.853,0,0,1-.724.427,3.932,3.932,0,0,1-.8.315,1.167,1.167,0,0,1-.149.409l-0.223.371h-1.224a1.017,1.017,0,0,0-.445.408,1.031,1.031,0,0,1-.446.408,6.336,6.336,0,0,0-.037.7v0.7q0,1.077.074,2.153t0.075,2.152v0.111q-0.3.705-.557,1.373a8.936,8.936,0,0,1-.631,1.3v0.26a2.3,2.3,0,0,0,.111.761c0.075,0.21.161,0.451,0.26,0.723a2.731,2.731,0,0,0-.093.594c-0.012.223-.031,0.445-0.055,0.668a3.768,3.768,0,0,1-.13.649,1.444,1.444,0,0,1-.241.5,3.293,3.293,0,0,1,.148,1.039,9.026,9.026,0,0,1-.074,1.169,9.23,9.23,0,0,0-.074,1.169,2.95,2.95,0,0,0,.074.7c0.05,0.2.111,0.433,0.185,0.705a0.152,0.152,0,0,1,.038.112,0.2,0.2,0,0,1-.149.222,0.2,0.2,0,0,0-.148.223v0.111q0.37,0.966.7,2a9.058,9.058,0,0,0,.872,1.93,5.508,5.508,0,0,0,1.317,1.5,3.56,3.56,0,0,0,2.041.686,0.273,0.273,0,0,0,.2.39,0.7,0.7,0,0,1,.427.241,7.836,7.836,0,0,0,.965-0.055,7.2,7.2,0,0,1,.891-0.056,3.978,3.978,0,0,1,.964.111q0.965-.519,1.949-1.076a10.461,10.461,0,0,1,2.059-.891,4.528,4.528,0,0,1,.631-0.649q0.335-.278.742-0.575a1.614,1.614,0,0,0,.483-0.26,5.968,5.968,0,0,0,1.131-1.28q0.576-.836,1.095-1.763t0.965-1.855q0.446-.927.779-1.6a5.016,5.016,0,0,1-.426-0.946,3.361,3.361,0,0,0-.464-0.909,2.083,2.083,0,0,1-.39.111,2.156,2.156,0,0,1-.39.037,1.6,1.6,0,0,1-.352-0.037,2.4,2.4,0,0,1-.353-0.111,2.13,2.13,0,0,1-.649.853,6.42,6.42,0,0,0-.8.742v1.076a1.863,1.863,0,0,0-.724.817q-0.242.521-.5,1.039a3.123,3.123,0,0,0-.853.5q-0.445.352-.872,0.723t-0.779.65a1.048,1.048,0,0,1-.576.278,0.994,0.994,0,0,1-.278-0.037,1.043,1.043,0,0,0-.278-0.037l-0.186.037a1.883,1.883,0,0,1-.853.742,2.792,2.792,0,0,1-1.114.223,2.332,2.332,0,0,1-1.484-.464,3.371,3.371,0,0,1-.946-1.169,6.085,6.085,0,0,1-.52-1.54,7.922,7.922,0,0,1-.167-1.54,3.81,3.81,0,0,1,.074-0.742,3.564,3.564,0,0,0,.075-0.705c0-.2-0.087-0.279-0.26-0.241s-0.273-.006-0.3-0.13a1.431,1.431,0,0,0,.3-0.7,7.654,7.654,0,0,0,.093-0.947c0.012-.334.024-0.661,0.037-0.983a2.922,2.922,0,0,1,.13-0.816A1.556,1.556,0,0,1,203.2,124a0.863,0.863,0,0,0,.483-0.39c0.148,0.025.3,0.044,0.445,0.056s0.3,0.019.445,0.019a6.85,6.85,0,0,0,1.6-.186,7.064,7.064,0,0,1,1.633-.185,3.069,3.069,0,0,1,.557.037,0.4,0.4,0,0,0,.092-0.242,0.159,0.159,0,0,1,.167-0.167,6.182,6.182,0,0,0,1.726-.241q0.835-.24,1.67-0.556t1.67-.557a6.175,6.175,0,0,1,1.725-.241h0.409a7.334,7.334,0,0,1,.593-0.965,1.78,1.78,0,0,0,.371-1.039,0.84,0.84,0,0,0-.167-0.52,1.957,1.957,0,0,0-.426-0.408,6.532,6.532,0,0,0-.984-0.074,2.708,2.708,0,0,1-.983-0.186,4.463,4.463,0,0,1-1.225.39q-0.594.093-1.15,0.13t-1.132.074a6.558,6.558,0,0,0-1.169.186,5.077,5.077,0,0,1-1.058.185c-0.359.025-.723,0.037-1.094,0.037s-0.743-.006-1.114-0.018a6.805,6.805,0,0,0-1.113.055,0.39,0.39,0,0,1-.26.242,1.288,1.288,0,0,1-.371.055,2.789,2.789,0,0,1-.426-0.037,1.856,1.856,0,0,1-.427-0.111,3.4,3.4,0,0,1-.241-0.891,7.625,7.625,0,0,1-.056-0.965q0-.481.037-0.983t0.111-1.021a5.513,5.513,0,0,1,1.726-.983q0.983-.353,2.059-0.631t2.134-.575a10.959,10.959,0,0,0,1.948-.742,2.479,2.479,0,0,0,.78.111,4.456,4.456,0,0,0,1.169-.167,4.79,4.79,0,0,0,1.132-.464,16.536,16.536,0,0,0,2.226,0q1.113-.073,2.227-0.074,0.408,0,.835.019c0.284,0.012.562,0.031,0.835,0.055a4.093,4.093,0,0,1,.853-0.278,4.006,4.006,0,0,0,.854-0.278,0.343,0.343,0,0,1,.259-0.371v-0.149A1.23,1.23,0,0,0,222.4,110.3Z" transform="translate(0 -95)"/>
    <path id="Branding" class="cls-1" d="M97.079,168.619q-0.427-.667-0.909-1.41a11.66,11.66,0,0,1-1.243-.52,4.137,4.137,0,0,1-1.132-.816,1.03,1.03,0,0,1-.872-0.111,2.282,2.282,0,0,0-.724-0.408,18.872,18.872,0,0,0-3.488-.854q-1.781-.26-3.562-0.594a9.7,9.7,0,0,0-1.113-.26,1.23,1.23,0,0,1-.26-0.092,0.577,0.577,0,0,0-.26-0.056q-0.854,0-1.67.056t-1.67.055q-1.67.037-3.377,0.056t-3.377.093a9.512,9.512,0,0,0,.854-0.724,11.016,11.016,0,0,1,.891-0.761,2.331,2.331,0,0,1,.5-0.315,2.26,2.26,0,0,0,.5-0.315,6.137,6.137,0,0,0,.816-0.724,9.222,9.222,0,0,1,.816-0.761q0.965-.853,2.022-1.633a19.75,19.75,0,0,1,2.208-1.41,1.746,1.746,0,0,1,.575-0.779q0.39-.3.724-0.594l0.334-.371a0.25,0.25,0,0,1,.223-0.111h0.594q0.742-.853,1.447-1.707a5.3,5.3,0,0,1,1.744-1.373q0.185-.519.408-1.076a1.5,1.5,0,0,1,.742-0.817,4.776,4.776,0,0,0,.223-1.447,6.437,6.437,0,0,0-.408-2.3,22.4,22.4,0,0,1-.705-2.189,3.612,3.612,0,0,1-1.169-.761q-0.464-.464-0.946-0.984H85.631a0.342,0.342,0,0,0-.278.112,0.266,0.266,0,0,1-.2.111A0.21,0.21,0,0,1,85,142.754a0.415,0.415,0,0,0-.074-0.353,0.946,0.946,0,0,0-.241-0.2c-0.087-.049-0.18-0.1-0.278-0.167a0.389,0.389,0,0,1-.186-0.241q-0.409-.036-0.761-0.056t-0.761-.018a11.614,11.614,0,0,0-2.356.241q-1.169.242-2.356,0.427a5.959,5.959,0,0,1-1.039.13,9.835,9.835,0,0,0-1.039.092,1.6,1.6,0,0,0-.538.186c-0.26.124-.452,0.21-0.575,0.26q-0.779.3-1.6,0.668a4,4,0,0,1-1.67.371H71.381a1.016,1.016,0,0,1-.5.371q-0.316.111-.687,0.223l-0.705.185a1.611,1.611,0,0,0-.594.26H68.078a7.538,7.538,0,0,1-1.484.649,13.836,13.836,0,0,1-1.6.427,1.04,1.04,0,0,1-.52.39,3.384,3.384,0,0,1-.668.13l-0.7.074a1.54,1.54,0,0,0-.594.185,2.4,2.4,0,0,0-1.317-.63q-0.761-.113-1.5-0.149a2.673,2.673,0,0,0-1.3,1.41,10.337,10.337,0,0,0-.557,1.893,2.715,2.715,0,0,1,.26,1.224,3.515,3.515,0,0,1-.074.724c-0.05.235-.111,0.477-0.186,0.724a0.89,0.89,0,0,0,.26.371,0.482,0.482,0,0,1,.148.408,1.8,1.8,0,0,1-.093.52,4.749,4.749,0,0,0-.13.482,16.52,16.52,0,0,0-.111,1.893q0,0.594.037,1.224t0.037,1.262a1.927,1.927,0,0,1-.056.427,2.9,2.9,0,0,1-.13.426q-0.075.52-.148,1.058T57.5,161.309q-0.223,1.707-.352,3.4t-0.13,3.4q0,1.559.13,3.321a28.017,28.017,0,0,0,.482,3.507,20.146,20.146,0,0,0,.983,3.358,12.448,12.448,0,0,0,1.6,2.913,2.186,2.186,0,0,1,1,.334q0.37,0.26.891,0.594a6.789,6.789,0,0,0,1.447-.278q0.631-.206,1.187-0.446t1.132-.519a9.391,9.391,0,0,1,1.28-.5,2.51,2.51,0,0,0-.3-0.8,1.656,1.656,0,0,1-.223-0.835,1.388,1.388,0,0,1,.148-0.631,1.22,1.22,0,0,0-.594-0.39,4.106,4.106,0,0,0-.7-0.129l-0.724-.075a1.9,1.9,0,0,1-.649-0.185l-0.037.074a0.574,0.574,0,0,0,.056.26,0.571,0.571,0,0,1,.056.26,0.182,0.182,0,0,1-.167.185,1.38,1.38,0,0,1-.278.037,1.063,1.063,0,0,1-.891-0.556,4.954,4.954,0,0,1-.612-1.429,15.14,15.14,0,0,1-.39-1.911q-0.149-1.039-.223-2.023t-0.093-1.781q-0.019-.8-0.019-1.132,0-.741.037-1.5a15.024,15.024,0,0,1,.148-1.5v-0.445c0-.148-0.006-0.3-0.019-0.445s-0.019-.3-0.019-0.446a1.036,1.036,0,0,1,.334-0.816,1.547,1.547,0,0,1-.167-0.779,2.108,2.108,0,0,0-.13-0.817c0.049-.123.13-0.309,0.241-0.556a1.646,1.646,0,0,0,.167-0.483,7.4,7.4,0,0,0-.037-0.761,6.846,6.846,0,0,1-.037-0.723,29.65,29.65,0,0,1,.185-3.321A29.774,29.774,0,0,0,62.4,153.4q0-.222-0.019-0.426c-0.013-.136-0.018-0.266-0.018-0.39a1.249,1.249,0,0,0,.742-0.3c0.2-.173.383-0.353,0.557-0.538a4.947,4.947,0,0,1,.538-0.5,1.066,1.066,0,0,1,.687-0.223,3.1,3.1,0,0,1,.557.075,1.1,1.1,0,0,1,.594-0.668,1.9,1.9,0,0,1,.891-0.26,0.934,0.934,0,0,1,.742.3,4.988,4.988,0,0,1,1.763-1.039,9.231,9.231,0,0,0,1.837-.854,0.408,0.408,0,0,1,.278.223,0.32,0.32,0,0,0,.278.185,1.926,1.926,0,0,1,.111-0.408,0.45,0.45,0,0,1,.26-0.26l0.853-.185,1.559-.371a8.448,8.448,0,0,1,1.559-.223,1.317,1.317,0,0,0,.315-0.26q0.13-.147.241-0.3a5.79,5.79,0,0,0,1.466-.037,9.651,9.651,0,0,1,1.466-.111,5.57,5.57,0,0,1,1.336.148,0.29,0.29,0,0,0,.2-0.241,0.177,0.177,0,0,1,.2-0.167h0.111q0.742,0.261,1.559.612a2.113,2.113,0,0,1,1.15,1.132,0.979,0.979,0,0,0-.278.52,3.219,3.219,0,0,0-.056.594,1.126,1.126,0,0,0,.037.334,1.54,1.54,0,0,0-.649.538q-0.242.352-.464,0.7a4.32,4.32,0,0,1-.5.649,1.486,1.486,0,0,1-.8.408,0.7,0.7,0,0,1-.056.446,1.257,1.257,0,0,1-.241.278c-0.1.087-.2,0.167-0.3,0.241a0.664,0.664,0,0,0-.223.334q-1.781,1.113-3.488,2.412l-3.414,2.6-2.227,1.707a5.124,5.124,0,0,0-.482.39,2.649,2.649,0,0,1-.482.352,1.851,1.851,0,0,1-.816.26,0.727,0.727,0,0,0-.631.557,0.439,0.439,0,0,0-.315.037,0.549,0.549,0,0,1-.278.074,0.171,0.171,0,0,1-.186-0.111,0.744,0.744,0,0,1-.186.445,1.568,1.568,0,0,1-.353.26q-0.2.111-.427,0.222a1.422,1.422,0,0,0-.371.26,0.457,0.457,0,0,0-.278-0.13,2.954,2.954,0,0,0-.315-0.018H65.963a1.062,1.062,0,0,1-.427.538,3.526,3.526,0,0,1-.575.278c-0.2.074-.4,0.143-0.612,0.2a1,1,0,0,0-.5.316,0.545,0.545,0,0,0-.167.445,0.213,0.213,0,0,1-.241.26H63.291a5.648,5.648,0,0,0,.315,1.465,4.464,4.464,0,0,0,.761,1.281,6.2,6.2,0,0,1,1.355.315,2.874,2.874,0,0,1,1.169.761c0.123-.024.253-0.043,0.39-0.056s0.266-.018.39-0.018,0.253,0.006.39,0.018,0.278,0.032.427,0.056a15.938,15.938,0,0,1,1.781-.2q0.927-.055,1.874-0.13t1.837-.223a6.233,6.233,0,0,0,1.67-.519,5.077,5.077,0,0,0,.742.093q0.37,0.018.779,0.018,0.742,0,1.5-.056t1.54-.055H80.7a1.443,1.443,0,0,0,.519.185,3.626,3.626,0,0,0,.52.037,9.266,9.266,0,0,0,1.021-.055,9.255,9.255,0,0,1,1.02-.056,5.27,5.27,0,0,1,.779.056,1.727,1.727,0,0,1,.705.278,0.244,0.244,0,0,0,.315-0.148,0.284,0.284,0,0,1,.315-0.186,0.425,0.425,0,0,1,.186.037q1.076,0.372,2.171.687a8.286,8.286,0,0,1,2.06.909h0.816a3.922,3.922,0,0,0,.854.705,1.27,1.27,0,0,1,.594.891,2.263,2.263,0,0,0-.631.556,6.8,6.8,0,0,1-.557.631,3.056,3.056,0,0,0-.853.408l-0.742.483c-0.248.148-.507,0.291-0.779,0.426a3.017,3.017,0,0,1-.965.279,5.21,5.21,0,0,1-2.227,1.4,23.489,23.489,0,0,1-2.561.7,2.9,2.9,0,0,1-1.336.849,8.119,8.119,0,0,0-1.484.627H79.656a14.193,14.193,0,0,1-2.152,1q-1.113.4-2.264,0.738t-2.319.645q-1.169.314-2.319,0.646a2.007,2.007,0,0,0-.668.038,6.207,6.207,0,0,1-.668.112,1.82,1.82,0,0,1-.408.674,1.485,1.485,0,0,0-.371.674c0.049,0.15.105,0.343,0.167,0.581a6.394,6.394,0,0,0,.223.693q0.13,0.336.278,0.637a0.873,0.873,0,0,0,.371.411,4.238,4.238,0,0,0,.946.187,9.253,9.253,0,0,0,.946.075,5.6,5.6,0,0,0,.946-0.074c0.284-.05.587-0.111,0.909-0.185a0.213,0.213,0,0,1,.148-0.038,0.116,0.116,0,0,1,.13.149,0.115,0.115,0,0,0,.13.148h0.111a3.941,3.941,0,0,0,.111-0.519,1.177,1.177,0,0,1,.148-0.446,1.323,1.323,0,0,0,.909-0.278,4.668,4.668,0,0,1,.835-0.5,12.743,12.743,0,0,1,2.523-.7,17.076,17.076,0,0,0,2.523-.631,1.237,1.237,0,0,1,.557-0.519,3.482,3.482,0,0,0,1.262-.279q0.7-.278,1.225-0.538l0.594-.259a2.246,2.246,0,0,1,.594-0.205,3.489,3.489,0,0,0,.594-0.167q0.742-.3,1.559-0.686a4.138,4.138,0,0,1,1.6-.427,4.613,4.613,0,0,1,1.169-.853q0.649-.334,1.28-0.668L92.2,176a6.5,6.5,0,0,1,.761-0.39,3.652,3.652,0,0,0,.761-0.464,16.049,16.049,0,0,0,1.392-1.169,6.4,6.4,0,0,1,1.429-1.02,0.488,0.488,0,0,1,.167-0.557A1.121,1.121,0,0,0,97.1,172a1.142,1.142,0,0,1,.148-0.909,1.54,1.54,0,0,0,.26-0.872A2.906,2.906,0,0,0,97.079,168.619Zm48.317,1q-0.316-.111-0.687-0.2c-0.248-.061-0.482-0.124-0.705-0.186a0.914,0.914,0,0,1-.52-0.352,21.489,21.489,0,0,1-4.23.538q-2.115.056-4.268,0.241-0.556.075-1.132,0.112a5.2,5.2,0,0,0-1.094.185,2.453,2.453,0,0,0-.427.111,1.13,1.13,0,0,1-.39.075,0.61,0.61,0,0,1-.389-0.186,0.5,0.5,0,0,0-.39-0.148h-0.111a1.654,1.654,0,0,1-.668.3,5.757,5.757,0,0,0-.7.185q-1.411.038-2.821,0.2t-2.839.353q-1.428.186-2.838,0.334a17.853,17.853,0,0,1-2.821.074l-0.593-.037a0.15,0.15,0,0,0-.186-0.149h-0.334a0.547,0.547,0,0,0-.13-0.538,1.078,1.078,0,0,0-.464-0.278,0.956,0.956,0,0,1-.037-0.3,2.162,2.162,0,0,1,.167-0.631,3.257,3.257,0,0,0,.2-0.668q2.56-2,4.973-4.156t4.824-4.342q0.37-.741.779-1.5t0.761-1.558a16.147,16.147,0,0,0,.613-1.615,6.444,6.444,0,0,0,.3-1.67v-0.63a12.959,12.959,0,0,0-2.152-2.338,1.894,1.894,0,0,1-.983-0.093q-0.39-.167-0.872-0.39a10.911,10.911,0,0,1-1.689-.055q-0.836-.093-1.688-0.13a8.786,8.786,0,0,0-2.413.185,9.794,9.794,0,0,1-2.412.223,6.457,6.457,0,0,0-1.465.093q-0.725.131-1.448,0.278t-1.447.278a6.409,6.409,0,0,1-1.466.093,7.091,7.091,0,0,1-1.076.5,2.681,2.681,0,0,1-1.113.167,2.356,2.356,0,0,1-.316-0.018,1.412,1.412,0,0,1-.315-0.093,1.473,1.473,0,0,1-.816.556,3.612,3.612,0,0,1-1,.149,4.473,4.473,0,0,1-.928-0.167,6.116,6.116,0,0,1-.854-0.316,3.52,3.52,0,0,0-1.02.631l-0.909.8a6.358,6.358,0,0,1-.947.687,2.018,2.018,0,0,1-1.169.259H100.4a4.116,4.116,0,0,1-.89.557l-0.965.445a5.211,5.211,0,0,0-.909.539,2.389,2.389,0,0,0-.686.8v0.594a2.481,2.481,0,0,0-.019.52,1.273,1.273,0,0,0,.13.482,0.76,0.76,0,0,1,.557.13,3.971,3.971,0,0,1,.427.371c0.136,0.136.284,0.273,0.445,0.408a1.358,1.358,0,0,0,.649.279,1.537,1.537,0,0,0,.408-0.205q0.259-.166.538-0.334c0.186-.111.346-0.216,0.482-0.315a0.656,0.656,0,0,1,.279-0.148,0.891,0.891,0,0,1,.167.018,0.806,0.806,0,0,0,.167.019,0.347,0.347,0,0,0,.222-0.093c0.075-.062.161-0.142,0.26-0.241a1.509,1.509,0,0,1,.353-0.26,0.877,0.877,0,0,1,.426-0.111l0.334,0.111a3.744,3.744,0,0,1,.112.538,4.492,4.492,0,0,1,.037.575,8.528,8.528,0,0,1-.149,1.114,8.571,8.571,0,0,0-.148,1.187,1.149,1.149,0,0,1-.167,1.355,2.908,2.908,0,0,0-.13.575,3.686,3.686,0,0,0,.13,1.224,3.724,3.724,0,0,1,.13,1.225,6.408,6.408,0,0,1-.13.816,3.677,3.677,0,0,0-.093.817,4.486,4.486,0,0,0,.093,1.466,5.345,5.345,0,0,1,.13,1.465,2.008,2.008,0,0,1-.149.817,6.226,6.226,0,0,1,.8,2.152q0.242,1.262.5,2.3a4.557,4.557,0,0,1,.817.8q0.371,0.463.779,0.909a4.694,4.694,0,0,0,.891.761,2.237,2.237,0,0,0,1.113.352,3.4,3.4,0,0,0,.816-0.111,3.706,3.706,0,0,1,.408-1.373,3.244,3.244,0,0,0,.372-1.373,0.314,0.314,0,0,0,0-.3,0.364,0.364,0,0,1-.149-0.167,1.169,1.169,0,0,0-.111-0.2c0.024-.1-0.025-0.149-0.149-0.149h-0.3a0.324,0.324,0,0,1-.148-0.037,0.072,0.072,0,0,1-.037-0.111,8.157,8.157,0,0,1-.835-1.726,17.849,17.849,0,0,1-.538-1.874q-0.224-.965-0.371-1.948t-0.334-1.874a10.475,10.475,0,0,0,.371-2.226q0.036-.966,0-1.893t0-1.893a7.955,7.955,0,0,1,.445-2.338c0.049-.123.093-0.234,0.13-0.333a2.193,2.193,0,0,0,.093-0.334,0.111,0.111,0,0,0,.037-0.075,0.107,0.107,0,0,1,.037-0.074,1.024,1.024,0,0,0-.093-0.427,1.011,1.011,0,0,1-.092-0.426,0.558,0.558,0,0,1,.074-0.223l2.041-.983a4.7,4.7,0,0,1,2.226-.464,1.006,1.006,0,0,1,.279.037,0.994,0.994,0,0,0,.278.037,5.344,5.344,0,0,1,1.614-.612,12.735,12.735,0,0,1,1.689-.223q0.853-.055,1.725-0.13a7.706,7.706,0,0,0,1.689-.334,11.643,11.643,0,0,0,1.614.037q0.8-.036,1.54,0a14.133,14.133,0,0,1,1.651.241,3.284,3.284,0,0,1,1.429.687,6.069,6.069,0,0,1-1.262,2.672,8.605,8.605,0,0,1-2.263,1.967,1.154,1.154,0,0,1-.26.5,3,3,0,0,1-.408.371q-0.224.167-.427,0.334a1.1,1.1,0,0,0-.315.426,8.624,8.624,0,0,0-1.318.854q-0.612.483-1.224,0.983t-1.225.984a6.953,6.953,0,0,1-1.317.816,17.99,17.99,0,0,1-1.262,1.484,17.8,17.8,0,0,1-1.41,1.336q-0.149.855-.3,1.67t-0.26,1.67a1.016,1.016,0,0,1,.52.668,2.423,2.423,0,0,0,.371.817,3,3,0,0,0,1.076.946,9.449,9.449,0,0,0,1.521.668,11.429,11.429,0,0,0,1.633.427,12.021,12.021,0,0,0,1.447.185,12.3,12.3,0,0,0,1.912-.074,5.656,5.656,0,0,0,1.8-.52,0.638,0.638,0,0,0,.576.279,1.775,1.775,0,0,1,.723.167,2.139,2.139,0,0,1,.78-0.408,6.064,6.064,0,0,1,.834-0.167c0.285-.038.569-0.087,0.854-0.149a2.624,2.624,0,0,0,.8-0.315,1.536,1.536,0,0,0,.668-0.075,2.215,2.215,0,0,1,.7-0.111,0.4,0.4,0,0,1,.26.093,2.477,2.477,0,0,0,.222.167,12.917,12.917,0,0,1,2.394-.687q1.28-.24,2.616-0.408t2.672-.278q1.337-.111,2.523-0.3a2.385,2.385,0,0,1,.65-0.056,2.644,2.644,0,0,0,.686-0.055,11.977,11.977,0,0,0,2.1-.483,6.309,6.309,0,0,1,2.171-.3,3.28,3.28,0,0,1,.352.019c0.112,0.013.229,0.031,0.353,0.056a4.886,4.886,0,0,0,.724-0.557,1.382,1.382,0,0,0,.389-0.854A0.67,0.67,0,0,0,145.4,169.621Zm17.014,3.544a3.5,3.5,0,0,0-.482-0.686,0.819,0.819,0,0,1-.483.111,1.774,1.774,0,0,1-.835-0.2,1.771,1.771,0,0,0-.835-0.2,1.229,1.229,0,0,0-.779.3,11.306,11.306,0,0,1-1.058-.8,3.084,3.084,0,0,1-.8-1.058,4.845,4.845,0,0,1,1.67-.3,2.027,2.027,0,0,1,.445.037,0.751,0.751,0,0,1-.149-0.408,0.774,0.774,0,0,1,.3-0.594,0.887,0.887,0,0,0,.3-0.7,1.208,1.208,0,0,0-.148-0.519,1.392,1.392,0,0,0-.446-0.075h-0.371c-0.222,0-.488.007-0.8,0.019a6.045,6.045,0,0,1-.946-0.037,3.6,3.6,0,0,1-.872-0.2,1.028,1.028,0,0,1-.575-0.52,8.785,8.785,0,0,1-.761-2.319q-0.242-1.281-.538-2.394c-0.074-.3-0.155-0.593-0.241-0.89a6.431,6.431,0,0,0-.316-0.854l-0.259-.593a2.086,2.086,0,0,1-.149-1.132,4.56,4.56,0,0,0,0-1.169,4.936,4.936,0,0,0-.408-1.3,4.908,4.908,0,0,1-.408-1.336,16.27,16.27,0,0,0-.538-2.319q-0.354-1.132-.65-2.32a7.965,7.965,0,0,1-.241-1.428,2,2,0,0,0-.538-1.244,11.654,11.654,0,0,1-1.559-.2,3.509,3.509,0,0,1-1.373-.76,1.3,1.3,0,0,0-.668.612,1.284,1.284,0,0,1-.668.612,0.1,0.1,0,0,1-.037.074,0.23,0.23,0,0,0,.149.242,0.23,0.23,0,0,1,.148.241v0.111a4.281,4.281,0,0,0-.8,1.355q-0.278.76-.5,1.521t-0.5,1.466a3.316,3.316,0,0,1-.835,1.225q-0.073.37-.129,0.835a0.543,0.543,0,0,1-.576.5,8.58,8.58,0,0,1-.463,1.818,14.175,14.175,0,0,1-.724,1.577q-0.41.761-.817,1.5a12.539,12.539,0,0,0-.742,1.633q-0.26-.075-0.315.093a0.231,0.231,0,0,1-.241.167,1.76,1.76,0,0,1-.13.7,0.667,0.667,0,0,1-.538.371,5.689,5.689,0,0,1-1.448,2.672v0.779a9.748,9.748,0,0,0-1.41,1.6q-0.631.889-1.243,1.762a14.288,14.288,0,0,1-1.354,1.652,5.95,5.95,0,0,1-1.745,1.261,0.432,0.432,0,0,0,.186.464,0.493,0.493,0,0,1,.223.464,1.285,1.285,0,0,0-.631.464,2.291,2.291,0,0,0-.334.7,5.638,5.638,0,0,0-.167.816,6.226,6.226,0,0,0-.056.8,1.5,1.5,0,0,0,1.485,1.151,2.792,2.792,0,0,0,1.113-.26,4.265,4.265,0,0,0,1-.594,0.877,0.877,0,0,1,.111-0.7,1.925,1.925,0,0,0,.687-0.519q0.278-.335.538-0.706t0.519-.7a2.116,2.116,0,0,1,.668-0.556,0.984,0.984,0,0,1,.3-0.78,1.152,1.152,0,0,0,.371-0.7,0.459,0.459,0,0,0,.353-0.055,0.709,0.709,0,0,0,.2-0.223c0.049-.086.1-0.185,0.148-0.3a0.479,0.479,0,0,1,.223-0.241,0.781,0.781,0,0,0,.408-0.111,5.94,5.94,0,0,0,1.447.185q0.52,0,1.021-.037c0.334-.024.674-0.037,1.02-0.037h0.334c0.173,0,.254-0.061.242-0.186s0.055-.185.2-0.185a1.19,1.19,0,0,0,.519.148,1.153,1.153,0,0,0,.668-0.2,3.483,3.483,0,0,1,.668-0.352,1.743,1.743,0,0,0,.483.074h0.519a9.43,9.43,0,0,0,1.856-.186q0.927-.185,1.781-0.445a1.851,1.851,0,0,1,.408.278,2.431,2.431,0,0,0,.371.279,0.938,0.938,0,0,1,.928-0.557h0.3a4.784,4.784,0,0,1,.779,1.039q0.335,0.594.631,1.188t0.612,1.131a3.409,3.409,0,0,0,.761.91,0.549,0.549,0,0,0,.5.222,0.537,0.537,0,0,1,.427.037,0.7,0.7,0,0,1,.278.186,2.675,2.675,0,0,0,.186.2,0.992,0.992,0,0,0,.222.167,0.9,0.9,0,0,0,.427.074,3.026,3.026,0,0,0,.464-0.037,3.373,3.373,0,0,1,.5-0.037,1.953,1.953,0,0,1,.371.037,2.205,2.205,0,0,1,.371.111,0.262,0.262,0,0,0,.186-0.259A0.164,0.164,0,0,1,159,175.41a3.3,3.3,0,0,1,.353.019,3.274,3.274,0,0,0,.352.018,8.312,8.312,0,0,0,.909-0.055,3.979,3.979,0,0,0,.984-0.242,2.673,2.673,0,0,0,.835-0.5,1.507,1.507,0,0,0,.464-0.835A2.648,2.648,0,0,1,162.41,173.165Zm-11.318-4.973a0.576,0.576,0,0,1-.223.316,0.7,0.7,0,0,1-.557-0.13,1.135,1.135,0,0,0-.519-0.241q-0.409.111-.835,0.185a5.031,5.031,0,0,1-.872.074,4.8,4.8,0,0,1-1.6-.259,1.951,1.951,0,0,1-.946.315,5.409,5.409,0,0,0-1.058.2,1.305,1.305,0,0,0-.668-0.371,4,4,0,0,0-.779-0.074c-0.272,0-.551-0.006-0.835-0.019a1.687,1.687,0,0,1-.761-0.2,3.393,3.393,0,0,1,.167-1.039,1.628,1.628,0,0,1,.65-0.853,11.737,11.737,0,0,1,.89-2.208q0.556-1.058,1.169-2.1t1.169-2.1a10.019,10.019,0,0,0,.854-2.245,1.29,1.29,0,0,0,.538-0.612,1.107,1.107,0,0,1,.538-0.575,2,2,0,0,0-.056-0.483,1.987,1.987,0,0,1-.055-0.482,1.154,1.154,0,0,1,.111-0.52,1.756,1.756,0,0,1,.649.761,6.039,6.039,0,0,1,.334,1q0.13,0.539.279,1.076a2.195,2.195,0,0,0,.482.909v0.112a0.76,0.76,0,0,1-.148.408,18.487,18.487,0,0,1,.8,2.449q0.313,1.262.575,2.524a11.241,11.241,0,0,1,.167,1.15,6.106,6.106,0,0,0,.2,1.113,2.736,2.736,0,0,0,.278.687,2.427,2.427,0,0,1,.241.909A0.64,0.64,0,0,0,151.092,168.192Zm35.421-16.569c-0.211-.123-0.427-0.241-0.65-0.352s-0.433-.229-0.631-0.353a1.911,1.911,0,0,1-.519-0.482,9.743,9.743,0,0,1-1.577-.13,14,14,0,0,0-1.615-.167,2.626,2.626,0,0,0-.222,1.039,4.439,4.439,0,0,0,.222,1.41,4.411,4.411,0,0,1,.223,1.41,1.365,1.365,0,0,1-.223.779,2.141,2.141,0,0,1,.557,1.077,11.935,11.935,0,0,1,.223,1.447l0.148,1.521a4.814,4.814,0,0,0,.3,1.3,4.8,4.8,0,0,0-.111,1,8.262,8.262,0,0,0,.167,1.67,8.987,8.987,0,0,0,.464,1.559,1.178,1.178,0,0,0-.223.538,4.022,4.022,0,0,0-.037.538,2.035,2.035,0,0,1,.3,1.15,4.069,4.069,0,0,1-.056.668,4.3,4.3,0,0,0-.056.7,1.659,1.659,0,0,0,.186.817,7.412,7.412,0,0,0-.464,2.041q-0.093,1.076-.167,2.115a0.843,0.843,0,0,0-.39.315,3.24,3.24,0,0,0-.241.464l-0.185.52a0.788,0.788,0,0,1-.26.408,4.658,4.658,0,0,1-2.282-.779,8.363,8.363,0,0,1-1.559-1.466q-0.687-.835-1.354-1.744a7.951,7.951,0,0,0-1.6-1.615q-0.594-1-1.15-1.911t-1.04-1.837a16.886,16.886,0,0,1-.853-1.929,11.31,11.31,0,0,1-.557-2.19,0.589,0.589,0,0,1-.482-0.408q-0.111-.335-0.186-0.631V159.49a2.3,2.3,0,0,1,.019-0.3,0.583,0.583,0,0,1,.093-0.259,0.333,0.333,0,0,0-.316-0.13,0.157,0.157,0,0,1-.2-0.167v-0.112a22.121,22.121,0,0,1-.575-3.191,19.421,19.421,0,0,0-.612-3.191,5.056,5.056,0,0,0-1.411-.594,7.686,7.686,0,0,0-1.484-.223,2.617,2.617,0,0,0-.668.594,6.7,6.7,0,0,1-.557.631,18.132,18.132,0,0,0-.241,2.171q-0.056,1.095-.074,2.171t-0.111,2.17a16.946,16.946,0,0,1-.316,2.134,4.016,4.016,0,0,1-.2.742c-0.087.223-.167,0.459-0.241,0.706-0.025,0-.037.024-0.037,0.074a0.266,0.266,0,0,0,.093.222,0.32,0.32,0,0,1,.092.26l-0.037.112q-0.408,1.559-.872,3.1t-0.853,3.1q-0.39,1.559-.668,3.154a18.5,18.5,0,0,0-.279,3.191,15.285,15.285,0,0,0,.26,2.728,7.451,7.451,0,0,0,.965,2.579,0.831,0.831,0,0,1,.668.26,0.831,0.831,0,0,0,.668.26h0.111a2.346,2.346,0,0,1,1.021-.464q0.612-.13,1.187-0.279a3.423,3.423,0,0,0,.984-0.408,0.972,0.972,0,0,0,.408-0.89,1.327,1.327,0,0,0-.186-0.687,3.018,3.018,0,0,0-.463-0.594,4.083,4.083,0,0,0-.613-0.5c-0.222-.148-0.421-0.284-0.594-0.408a0.671,0.671,0,0,0,.223-0.482,0.757,0.757,0,0,0-.148-0.408,1.86,1.86,0,0,1-.223-0.446,2.9,2.9,0,0,1-.037-0.482V175.15a9.969,9.969,0,0,1,.241-2.189,9.8,9.8,0,0,0,.241-2.152v-0.334a1.867,1.867,0,0,0-.037-0.371,0.443,0.443,0,0,0,.39-0.26,0.906,0.906,0,0,1,.278-0.371,0.161,0.161,0,0,1,.019-0.075,0.165,0.165,0,0,0,.018-0.074,0.2,0.2,0,0,0-.148-0.222,0.2,0.2,0,0,1-.149-0.223v-0.111a3.528,3.528,0,0,0,.427-0.835,8.769,8.769,0,0,0,.279-0.928q0.111-.464.241-0.928a4.166,4.166,0,0,1,.352-0.872,13.214,13.214,0,0,1,1.3,1.856,8.458,8.458,0,0,1,.854,2.115,2.067,2.067,0,0,0,.426.26,0.686,0.686,0,0,1,.353.408c0.1,0.2.179,0.371,0.241,0.519a2.475,2.475,0,0,0,.278.483,9.269,9.269,0,0,0,.835,1.113,3.632,3.632,0,0,1,.687,1.225,11.836,11.836,0,0,1,1.93,1.837,14.2,14.2,0,0,0,1.892,1.874,5.343,5.343,0,0,1,1.373.593q0.594,0.371,1.169.705a8.816,8.816,0,0,0,1.243.594,4.408,4.408,0,0,0,1.6.26h0.074a1.663,1.663,0,0,1,.538-0.52,0.93,0.93,0,0,0,.427-0.556,2.671,2.671,0,0,0,1.113-.427,3.989,3.989,0,0,0,.78-0.724,10.489,10.489,0,0,0,.649-0.89,4.689,4.689,0,0,1,.761-0.891,18.646,18.646,0,0,1,.427-2.152,8.6,8.6,0,0,0,.278-2.153q0-.3-0.019-0.612t-0.018-.612c0-.321.006-0.631,0.018-0.928s0.019-.618.019-0.965a14.566,14.566,0,0,0-.39-3.358,27.781,27.781,0,0,1-.575-3.359q-0.148-1.335-.185-2.709a14.334,14.334,0,0,0-.334-2.709,2.311,2.311,0,0,0,.315-0.5q0.129-.278.26-0.538a1.773,1.773,0,0,1,.334-0.464,0.915,0.915,0,0,1,.575-0.241,1.61,1.61,0,0,1,.056-0.835,3.61,3.61,0,0,0,.2-0.76A1.355,1.355,0,0,0,186.513,151.623Zm28.926,5.585c-0.148-.358-0.321-0.724-0.519-1.095s-0.4-.736-0.612-1.094a6.872,6.872,0,0,1-.5-1.021q-0.483-.408-0.872-0.761a2.079,2.079,0,0,1-.576-0.946,7.956,7.956,0,0,1-1.41-.853q-0.632-.483-1.261-1l-3.043-.817a11.992,11.992,0,0,0-3.118-.408H202.9a0.1,0.1,0,0,0-.111-0.111,2.325,2.325,0,0,0-.389.055c-0.186.037-.39,0.081-0.613,0.13l-0.631.111a3.921,3.921,0,0,1-.445.038q-1.41.186-2.746,0.278a15.381,15.381,0,0,0-2.672.427,1.269,1.269,0,0,0-.482-0.13c-0.174-.012-0.334-0.019-0.483-0.019h-0.631a1.47,1.47,0,0,0-.278.538,0.624,0.624,0,0,1-.352.427,5.5,5.5,0,0,1-.65.186c-0.31.074-.563,0.136-0.761,0.185q-0.889.3-1.762,0.668a9.35,9.35,0,0,1-1.763.557l-0.371.965a2.757,2.757,0,0,0-.186,1,2.379,2.379,0,0,0,.26,1.076,4.6,4.6,0,0,0,.909.2,2.061,2.061,0,0,1,.872.315,7.594,7.594,0,0,1,1.6-.649q0.854-.242,1.707-0.427a9.315,9.315,0,0,1,.353,1.744,17.433,17.433,0,0,1,.092,1.782,27.854,27.854,0,0,1-.278,3.952,27.981,27.981,0,0,0-.278,3.952,18.521,18.521,0,0,0,.111,2.041,2.451,2.451,0,0,0-.111.334,1.366,1.366,0,0,0-.037.334,1.5,1.5,0,0,0,.074.482,1.418,1.418,0,0,1,.074.446,0.182,0.182,0,0,1-.223.185,0.165,0.165,0,0,0-.185.223,0.7,0.7,0,0,1,.519.185,1.4,1.4,0,0,1,.3.446,2.062,2.062,0,0,1,.149.556,2.625,2.625,0,0,0,.111.52q0.408,0.408.816,0.76a1.627,1.627,0,0,1,.52.984,2.337,2.337,0,0,1,1.41.631,6.535,6.535,0,0,1,.965,1.261,1.166,1.166,0,0,1,.427-0.055,0.932,0.932,0,0,1,.315.093c0.1,0.049.191,0.1,0.278,0.148a0.623,0.623,0,0,0,.316.074,10.481,10.481,0,0,1,1.15-.594,3.206,3.206,0,0,1,1.262-.222,3.492,3.492,0,0,1,.983-0.742c0.384-.2.748-0.371,1.095-0.52,0.049-.024.2-0.08,0.445-0.167a2.02,2.02,0,0,0,.409-0.167l0.816-.779a10.375,10.375,0,0,1,.872-0.779q0.464-.371.909-0.743,1.6-1.3,2.988-2.486a21.068,21.068,0,0,0,2.5-2.523,16.579,16.579,0,0,0,1.948-2.932,14.344,14.344,0,0,0,1.28-3.748v-0.149a0.305,0.305,0,0,0-.074-0.222,0.25,0.25,0,0,1-.074-0.186,0.435,0.435,0,0,1,.259-0.445,0.467,0.467,0,0,0,.26-0.482A2.664,2.664,0,0,0,215.439,157.208Zm-3.543,2.468a1.982,1.982,0,0,0-.2.965v0.148q-0.482.668-.927,1.392t-0.947,1.391a13.04,13.04,0,0,1-1.076,1.262,5.553,5.553,0,0,1-1.317,1,0.864,0.864,0,0,1-.408.612,0.868,0.868,0,0,0-.409.613,0.49,0.49,0,0,0-.463.222,0.646,0.646,0,0,1-.427.3,1.939,1.939,0,0,1-.3.371l-0.371.334a1.633,1.633,0,0,0-.316.334,0.694,0.694,0,0,0-.129.408l0.037,0.149c-0.075-.025-0.155-0.05-0.242-0.074a0.792,0.792,0,0,0-.2-0.038,0.321,0.321,0,0,0-.222.112,10.07,10.07,0,0,1-2.561,1.707,20.412,20.412,0,0,1-2.932,1.076,0.131,0.131,0,0,1-.148-0.148,0.352,0.352,0,0,1,.148-0.3,0.3,0.3,0,0,0,.149-0.223V171.18q-0.52-.224-0.983-0.446a3.167,3.167,0,0,1-.873-0.63,9.041,9.041,0,0,1-.315-1.485,12.217,12.217,0,0,1-.093-1.521,22.731,22.731,0,0,1,.223-3.155q0.222-1.595.3-3.154a2.712,2.712,0,0,0,.371-0.7,2.3,2.3,0,0,0,.148-0.779,1.142,1.142,0,0,0-.371-0.891,1.155,1.155,0,0,0,.371-0.7,4.775,4.775,0,0,0,.075-0.779,4.42,4.42,0,0,0-.093-0.891,4.019,4.019,0,0,1-.093-0.816q0-.26.111-0.279a1.949,1.949,0,0,1,.3-0.018,0.32,0.32,0,0,0-.3-0.3,0.29,0.29,0,0,1-.259-0.334v-0.149a8.426,8.426,0,0,1,1.5-.649,5.063,5.063,0,0,1,1.54-.241h0.446a1.1,1.1,0,0,1,.408.074,0.644,0.644,0,0,0,.3-0.167,0.5,0.5,0,0,1,.371-0.093c0.223-.024.439-0.043,0.649-0.055s0.414-.019.613-0.019,0.476,0.013.835,0.037,0.723,0.05,1.094.074,0.724,0.062,1.058.112,0.6,0.087.8,0.111a1.2,1.2,0,0,1,.594.334,0.816,0.816,0,0,0,.593.26,0.635,0.635,0,0,0,.26-0.037,1.615,1.615,0,0,0,.946.983,12.566,12.566,0,0,0,1.355.464,7.3,7.3,0,0,1,.928,1.67q0.371,0.929.779,1.781A3.283,3.283,0,0,1,211.9,159.676ZM224.568,170.1a5.615,5.615,0,0,1-.482-1.411,0.629,0.629,0,0,1-.186-0.074,0.269,0.269,0,0,0-.3.13,0.27,0.27,0,0,1-.3.13l-0.075-.037a8.39,8.39,0,0,1-.593-3.544q0.073-1.911.334-3.915t0.371-3.989a10.03,10.03,0,0,0-.483-3.767,5.889,5.889,0,0,0-.7-0.538,2.148,2.148,0,0,0-.853-0.316,1.164,1.164,0,0,0-.613.019q-0.315.093-.612,0.2a0.622,0.622,0,0,1,0,.3,0.461,0.461,0,0,1-.3.427,0.614,0.614,0,0,0-.371.389,0.549,0.549,0,0,1,.186.594,1.739,1.739,0,0,1-.13.464,2.9,2.9,0,0,0-.167.5l0.037,0.186a5.805,5.805,0,0,1,.334,1.985,13.28,13.28,0,0,1-.149,2.022q-0.148,1.077-.334,2.116t-0.333,2.115q-0.037.3-.093,0.649a4.664,4.664,0,0,0-.056.724c0.024,0.2.062,0.408,0.111,0.631a6.166,6.166,0,0,1,.112.668,27.164,27.164,0,0,1,.222,2.783q0.408,0.631.872,1.336a12.063,12.063,0,0,0,1.021,1.336,0.6,0.6,0,0,1,.3,0,0.692,0.692,0,0,1,.519.241,0.748,0.748,0,0,0,.446.278,0.6,0.6,0,0,1,.389-0.167,3.755,3.755,0,0,1,.52,0q0.278,0.02.594,0.019a1.452,1.452,0,0,0,.575-0.111,6.122,6.122,0,0,1,.482-0.5,2.677,2.677,0,0,0,.446-0.539Q224.9,170.772,224.568,170.1Zm28.185-18.481c-0.211-.123-0.427-0.241-0.649-0.352s-0.434-.229-0.631-0.353a1.915,1.915,0,0,1-.52-0.482,9.761,9.761,0,0,1-1.577-.13,13.963,13.963,0,0,0-1.614-.167,2.61,2.61,0,0,0-.223,1.039,4.411,4.411,0,0,0,.223,1.41,4.439,4.439,0,0,1,.222,1.41,1.372,1.372,0,0,1-.222.779,2.14,2.14,0,0,1,.556,1.077,11.935,11.935,0,0,1,.223,1.447l0.148,1.521a4.814,4.814,0,0,0,.3,1.3,4.8,4.8,0,0,0-.111,1,8.335,8.335,0,0,0,.167,1.67,9.075,9.075,0,0,0,.464,1.559,1.189,1.189,0,0,0-.223.538,4.022,4.022,0,0,0-.037.538,2.035,2.035,0,0,1,.3,1.15,4.069,4.069,0,0,1-.056.668,4.306,4.306,0,0,0-.055.7,1.659,1.659,0,0,0,.185.817,7.448,7.448,0,0,0-.464,2.041q-0.093,1.076-.167,2.115a0.835,0.835,0,0,0-.389.315,3.346,3.346,0,0,0-.242.464l-0.185.52a0.782,0.782,0,0,1-.26.408,4.662,4.662,0,0,1-2.282-.779,8.363,8.363,0,0,1-1.559-1.466q-0.687-.835-1.354-1.744a7.925,7.925,0,0,0-1.6-1.615q-0.594-1-1.15-1.911t-1.039-1.837a16.718,16.718,0,0,1-.854-1.929,11.311,11.311,0,0,1-.556-2.19,0.589,0.589,0,0,1-.483-0.408q-0.111-.335-0.185-0.631V159.49a2.3,2.3,0,0,1,.018-0.3,0.583,0.583,0,0,1,.093-0.259,0.332,0.332,0,0,0-.316-0.13,0.157,0.157,0,0,1-.2-0.167v-0.112a22.121,22.121,0,0,1-.575-3.191,19.317,19.317,0,0,0-.612-3.191,5.05,5.05,0,0,0-1.41-.594,7.7,7.7,0,0,0-1.485-.223,2.617,2.617,0,0,0-.668.594,6.833,6.833,0,0,1-.556.631,18.132,18.132,0,0,0-.241,2.171q-0.057,1.095-.075,2.171t-0.111,2.17a17.13,17.13,0,0,1-.315,2.134,4.015,4.015,0,0,1-.205.742c-0.087.223-.167,0.459-0.241,0.706-0.025,0-.037.024-0.037,0.074a0.266,0.266,0,0,0,.093.222,0.32,0.32,0,0,1,.093.26l-0.037.112q-0.41,1.559-.873,3.1t-0.853,3.1q-0.39,1.559-.668,3.154a18.5,18.5,0,0,0-.278,3.191,15.374,15.374,0,0,0,.259,2.728,7.471,7.471,0,0,0,.965,2.579,0.831,0.831,0,0,1,.668.26,0.833,0.833,0,0,0,.668.26h0.112a2.336,2.336,0,0,1,1.02-.464q0.612-.13,1.188-0.279a3.428,3.428,0,0,0,.983-0.408,0.972,0.972,0,0,0,.408-0.89,1.336,1.336,0,0,0-.185-0.687,3.024,3.024,0,0,0-.464-0.594,4.083,4.083,0,0,0-.613-0.5c-0.222-.148-0.421-0.284-0.593-0.408a0.673,0.673,0,0,0,.222-0.482,0.757,0.757,0,0,0-.148-0.408,1.9,1.9,0,0,1-.223-0.446,2.9,2.9,0,0,1-.037-0.482V175.15a9.969,9.969,0,0,1,.241-2.189,9.8,9.8,0,0,0,.242-2.152v-0.334a1.869,1.869,0,0,0-.038-0.371,0.443,0.443,0,0,0,.39-0.26,0.915,0.915,0,0,1,.278-0.371,0.161,0.161,0,0,1,.019-0.075,0.166,0.166,0,0,0,.019-0.074,0.2,0.2,0,0,0-.149-0.222,0.2,0.2,0,0,1-.148-0.223v-0.111a3.564,3.564,0,0,0,.426-0.835,8.54,8.54,0,0,0,.279-0.928q0.111-.464.241-0.928a4.166,4.166,0,0,1,.352-0.872,13.214,13.214,0,0,1,1.3,1.856,8.421,8.421,0,0,1,.854,2.115,2.048,2.048,0,0,0,.427.26,0.688,0.688,0,0,1,.352.408q0.148,0.3.241,0.519a2.484,2.484,0,0,0,.279.483,9.165,9.165,0,0,0,.835,1.113,3.647,3.647,0,0,1,.686,1.225,11.836,11.836,0,0,1,1.93,1.837,14.321,14.321,0,0,0,1.892,1.874,5.343,5.343,0,0,1,1.373.593q0.594,0.371,1.169.705a8.829,8.829,0,0,0,1.244.594,4.4,4.4,0,0,0,1.595.26h0.074a1.656,1.656,0,0,1,.539-0.52,0.933,0.933,0,0,0,.426-0.556,2.67,2.67,0,0,0,1.114-.427,4.012,4.012,0,0,0,.779-0.724,10.274,10.274,0,0,0,.649-0.89,4.689,4.689,0,0,1,.761-0.891,18.86,18.86,0,0,1,.427-2.152,8.6,8.6,0,0,0,.278-2.153q0-.3-0.018-0.612t-0.019-.612c0-.321.006-0.631,0.019-0.928s0.018-.618.018-0.965a14.566,14.566,0,0,0-.39-3.358,27.781,27.781,0,0,1-.575-3.359q-0.148-1.335-.185-2.709a14.334,14.334,0,0,0-.334-2.709,2.311,2.311,0,0,0,.315-0.5c0.087-.185.173-0.364,0.26-0.538a1.8,1.8,0,0,1,.334-0.464,0.92,0.92,0,0,1,.575-0.241,1.61,1.61,0,0,1,.056-0.835,3.61,3.61,0,0,0,.2-0.76A1.355,1.355,0,0,0,252.753,151.623ZM295.5,155.5c-0.013-.161-0.019-0.34-0.019-0.538v-0.445a4.645,4.645,0,0,0-2.671-.78,10.346,10.346,0,0,0-2.32.26,10.189,10.189,0,0,1-2.282.26h-0.186a7.081,7.081,0,0,1-1.28.594,4.274,4.274,0,0,1-1.391.222h-0.26a1.08,1.08,0,0,1-.26-0.037,3.738,3.738,0,0,1-1.021.5,3.6,3.6,0,0,1-1.131.2,1.251,1.251,0,0,1-.631-0.148,1.451,1.451,0,0,1-.52.334,1.819,1.819,0,0,0-.556.334q-1.709.519-3.452,0.946t-3.469.909q-1.726.483-3.4,1.076a23.867,23.867,0,0,0-3.265,1.448,0.249,0.249,0,0,0-.056-0.149,0.162,0.162,0,0,0-.13-0.074,0.334,0.334,0,0,0-.148.037,0.331,0.331,0,0,1-.149.037,0.3,0.3,0,0,1-.185-0.111,0.542,0.542,0,0,1-.2.408,1.241,1.241,0,0,1-.427.167,3.741,3.741,0,0,1-.52.074,1,1,0,0,0-.445.13,3.938,3.938,0,0,0-.464.946,3.221,3.221,0,0,0-.167,1.021,2.111,2.111,0,0,0,.779,1.67q0.3-.036.538-0.074a3.263,3.263,0,0,1,.5-0.037,1.6,1.6,0,0,1,.557.111,4.347,4.347,0,0,1,1.243-.631q0.687-.222,1.392-0.427a12.684,12.684,0,0,0,1.336-.464,2.79,2.79,0,0,0,1.076-.779,0.6,0.6,0,0,0,.371.111,1.5,1.5,0,0,0,.8-0.241,1.63,1.63,0,0,1,.872-0.241h0.074a7.875,7.875,0,0,1,.371,1.93q0.075,1.039.074,1.966,0,0.558-.018,1.114t-0.019,1.113a1.954,1.954,0,0,1,.483.8,3.12,3.12,0,0,1,.148.946,3.329,3.329,0,0,1-.074.631q-2.079.409-4.527,0.687a40.427,40.427,0,0,1-4.528.278,2.408,2.408,0,0,1-.668-0.223,2.469,2.469,0,0,0-.965-0.222,1.2,1.2,0,0,0-.185.018,1.1,1.1,0,0,1-.186.019,4.083,4.083,0,0,0-1.521-.8,4.114,4.114,0,0,1-1.262-.538,2.509,2.509,0,0,1-.464-0.557,8.356,8.356,0,0,1-.464-0.816l-0.445-.854a6.122,6.122,0,0,0-.371-0.7,4.8,4.8,0,0,0,.111-1.076,3.829,3.829,0,0,0-.111-0.928q0.37-1.149.649-2.3t0.576-2.337a2.928,2.928,0,0,0,1.113-.854,13.338,13.338,0,0,0,.835-1.169,9.982,9.982,0,0,1,.853-1.15,3.1,3.1,0,0,1,1.169-.835c0.05-.124.105-0.284,0.167-0.483a0.36,0.36,0,0,1,.353-0.3,0.554,0.554,0,0,1,.278.056,0.553,0.553,0,0,0,.279.056,1.141,1.141,0,0,1-.019-0.538q0.056-.242.13-0.538a4.28,4.28,0,0,0,1.262-.5q0.592-.352,1.169-0.7a10.789,10.789,0,0,1,1.187-.631,3.226,3.226,0,0,1,1.355-.279,3.517,3.517,0,0,1,1.039.149,1.9,1.9,0,0,0,.964-1.28,7.58,7.58,0,0,0,.186-1.652,0.213,0.213,0,0,1-.2-0.018,0.488,0.488,0,0,1-.093-0.13l-0.037-.186a0.42,0.42,0,0,0-.037-0.185,1.587,1.587,0,0,0-.872-0.576,3.644,3.644,0,0,0-.984-0.167,6.4,6.4,0,0,0-1.836.26,8.606,8.606,0,0,1-1.763.334,3.36,3.36,0,0,1-1,.909,6.466,6.466,0,0,1-1.262.576,5.587,5.587,0,0,1-1.28,1.41q-0.761.594-1.5,1.224a2.488,2.488,0,0,1-.538.891c-0.236.248-.47,0.489-0.7,0.724a5.676,5.676,0,0,0-.65.779,2.3,2.3,0,0,0-.371,1.057,7.554,7.554,0,0,0-1.837,2.023,24.052,24.052,0,0,0-1.317,2.431c-0.074.148-.155,0.315-0.241,0.5a4.7,4.7,0,0,0-.2.5,0.9,0.9,0,0,0-.075.334,1.7,1.7,0,0,1-.037.334,4.7,4.7,0,0,1-.371,1.187,9.025,9.025,0,0,1-.594,1.076,1.722,1.722,0,0,1,.52.52,1.175,1.175,0,0,0-.26.853l0.26,0.52a4.571,4.571,0,0,0,.872,3.34,9.741,9.741,0,0,0,2.616,2.338,1.072,1.072,0,0,0,.26.389,0.542,0.542,0,0,1,.148.427,22.378,22.378,0,0,1,2.691.761,17.915,17.915,0,0,0,2.727.723,0.9,0.9,0,0,1,.372-0.13c0.123-.012.247-0.018,0.371-0.018a3.265,3.265,0,0,1,.575.056,1.765,1.765,0,0,1,.575.2,0.166,0.166,0,0,1,.056-0.2,0.576,0.576,0,0,1,.222-0.075,2.044,2.044,0,0,1,.279-0.018,0.305,0.305,0,0,0,.222-0.074q2,0,4.027-.167a24.667,24.667,0,0,0,3.952-.65,15.306,15.306,0,0,1,1.039,1.318q0.481,0.687.983,1.335a12.827,12.827,0,0,0,1.076,1.225,6.838,6.838,0,0,0,1.318,1.021,2.223,2.223,0,0,1,.779-0.223c0.173,0,.445-0.013.817-0.037a2.167,2.167,0,0,0,.445-0.909,4.71,4.71,0,0,0,.111-1.021c0-.247-0.013-0.5-0.037-0.761s-0.062-.513-0.111-0.76a1.754,1.754,0,0,1-1.392-.928,7.945,7.945,0,0,1-.556-1.614,10.653,10.653,0,0,0-.52-1.633,1.684,1.684,0,0,0-1.28-.984,1.308,1.308,0,0,0,.074-0.408,2.053,2.053,0,0,0-.334-1.095,2.792,2.792,0,0,1-.408-1.168v-0.149a13.689,13.689,0,0,0-.26-2.653,13.7,13.7,0,0,1-.26-2.654,0.691,0.691,0,0,0,.241-0.315,0.4,0.4,0,0,1,.279-0.241,1.308,1.308,0,0,1,.408-0.074,0.987,0.987,0,0,0,.371-0.075q0.408-.185.779-0.389a1.743,1.743,0,0,1,.854-0.2,2.2,2.2,0,0,1,.519.074,3.45,3.45,0,0,1,1.281-.817,12.138,12.138,0,0,1,1.484-.426q0.76-.168,1.466-0.371a3.6,3.6,0,0,0,1.262-.65,2.183,2.183,0,0,0,.482.037,4.893,4.893,0,0,0,1.188-.148l1.187-.3a1.512,1.512,0,0,1,.52-0.056,0.988,0.988,0,0,0,.445-0.055,0.345,0.345,0,0,0,.241-0.334,0.349,0.349,0,0,1,.278-0.334,3.159,3.159,0,0,0,1,.148,4.025,4.025,0,0,0,.761-0.074,4.292,4.292,0,0,1,.8-0.074,0.183,0.183,0,0,1,.167.092,1.466,1.466,0,0,1,.093.186,1.233,1.233,0,0,0,.092.186,0.219,0.219,0,0,0,.2.092l0.074-.037a0.766,0.766,0,0,1,.352-0.538,2.07,2.07,0,0,1,.613-0.241,3.879,3.879,0,0,0,.649-0.2,0.726,0.726,0,0,0,.427-0.464A1.575,1.575,0,0,1,295.5,155.5Z" transform="translate(0 -95)"/>
  </g>
</svg>
