<svg xmlns="http://www.w3.org/2000/svg" width="300" height="300" viewBox="0 0 300 300">
  <metadata><?xpacket begin="﻿" id="W5M0MpCehiHzreSzNTczkc9d"?>
<x:xmpmeta xmlns:x="adobe:ns:meta/" x:xmptk="Adobe XMP Core 5.6-c138 79.159824, 2016/09/14-01:09:01        ">
   <rdf:RDF xmlns:rdf="http://www.w3.org/1999/02/22-rdf-syntax-ns#">
      <rdf:Description rdf:about=""/>
   </rdf:RDF>
</x:xmpmeta>
                                                                                                    
                                                                                                    
                                                                                                    
                                                                                                    
                                                                                                    
                                                                                                    
                                                                                                    
                                                                                                    
                                                                                                    
                                                                                                    
                                                                                                    
                                                                                                    
                                                                                                    
                                                                                                    
                                                                                                    
                                                                                                    
                                                                                                    
                                                                                                    
                                                                                                    
                                                                                                    
                           
<?xpacket end="w"?></metadata>
<defs>
    <style>
      .cls-1 {
        fill: none;
        stroke: #000;
        stroke-width: 20px;
      }

      .cls-2 {
        fill-rule: evenodd;
      }
    </style>
  </defs>
  <ellipse id="Cirkel" class="cls-1" cx="149" cy="151" rx="105" ry="110"/>
  <path id="S" class="cls-2" d="M144.723,162.836a37.4,37.4,0,0,1,5.662,6.868,6.169,6.169,0,0,1,.181,6.2q-1.579,3.238-6,4.084t-12.347-3.019a42.96,42.96,0,0,1-13.055-9.572,48.828,48.828,0,0,1-8.082-11.554,23.348,23.348,0,0,0-8.472,2.176,13.5,13.5,0,0,0-6.657,6.667,14.23,14.23,0,0,0-1.237,9.31,22.9,22.9,0,0,0,4.6,9.454,48.654,48.654,0,0,0,9.426,9,82.568,82.568,0,0,0,13.241,7.96q21.029,10.258,36.013,7.054a29.953,29.953,0,0,0,21.69-16.957Q186,177.567,181.5,166.058t-17.339-23.779l-7.233-6.933A24.17,24.17,0,0,1,152,129.437a5.233,5.233,0,0,1-.17-4.989q1.5-3.072,5.883-3.439T169.38,124.2a53.278,53.278,0,0,1,12.275,8.091,40.767,40.767,0,0,1,7.612,8.62,22.4,22.4,0,0,0,7.177-2.808,14.4,14.4,0,0,0,5.454-6.252,13.06,13.06,0,0,0,1.164-8.544,19.943,19.943,0,0,0-4.189-8.452,42.99,42.99,0,0,0-8.813-8,90.057,90.057,0,0,0-12.469-7.285q-19.091-9.313-33.711-6.23t-21.329,16.833a31.051,31.051,0,0,0-3.533,13.2,27.891,27.891,0,0,0,2.409,11.69,44.106,44.106,0,0,0,7.07,10.959q4.6,5.352,10.536,11.248Z"/>
</svg>
